<svg width="100" height="62" viewBox="0 0 100 62" fill="none" xmlns="http://www.w3.org/2000/svg">
    <mask id="path-1-outside-1_2206_2113" maskUnits="userSpaceOnUse" x="-3.57885" y="-3.63521" width="106.578" height="69.3717" fill="black">
    <rect fill="white" x="-3.57885" y="-3.63521" width="106.578" height="69.3717"/>
    <path d="M27.5894 23.2533L27.578 23.2874L25.6457 29.0564C23.3475 35.9177 18.7907 38.0741 11.5993 35.7413C4.62424 33.3291 2.17206 28.6353 4.41306 21.9446L8.00325 11.2259C10.2328 4.56936 15.6782 2.02719 22.6761 4.3711C27.8989 6.12046 30.1482 9.37961 30.6681 12.0215C30.8936 13.5018 29.8443 14.8208 27.9311 15.319C26.0064 15.8512 24.664 15.2118 23.7103 13.4117C23.154 12.3521 22.0625 11.417 21.0384 11.074C17.8637 10.0107 15.6648 11.2484 14.5329 14.6279L11.4801 23.7422C10.4396 26.8486 11.0864 28.3181 13.8514 29.2442C16.514 30.136 17.8812 29.3411 18.9217 26.2347L19.7106 23.8793L17.799 23.2391C15.9557 22.6216 15.2292 21.1634 15.8466 19.3201C16.464 17.4767 17.9223 16.7502 19.7656 17.3677L25.637 19.3343C27.4804 19.9517 28.2068 21.4099 27.5894 23.2533ZM26.8953 23.0587L26.9067 23.0246C27.4212 21.4885 26.8878 20.3606 25.4541 19.8804L19.5827 17.9138C18.149 17.4336 17.0439 18.0126 16.5293 19.5487C16.0148 21.0848 16.5482 22.2127 17.982 22.6929L20.5763 23.5618L19.6044 26.4634C18.4725 29.8429 16.7407 30.8194 13.6684 29.7904C10.4938 28.727 9.66539 26.893 10.7973 23.5135L13.8501 14.3992C15.085 10.7125 17.6712 9.33874 21.2213 10.5279C22.4502 10.9395 23.7123 12.0456 24.314 13.1962C25.1541 14.7685 26.0756 15.191 27.7156 14.7153C29.2531 14.3191 30.154 13.2161 29.9621 12.0888C29.3861 8.93452 26.6236 6.30076 22.4931 4.91728C15.8707 2.69914 10.8126 5.10525 8.68597 11.4546L5.09579 22.1733C2.95768 28.5567 5.18267 32.9087 11.7822 35.1951C18.5981 37.4022 22.7677 35.3818 24.963 28.8277L26.8953 23.0587ZM40.7085 14.7011L32.5677 39.006C31.8131 41.259 30.241 41.9853 27.8856 41.1964C25.5302 40.4074 24.7128 38.8808 25.4674 36.6278L33.6082 12.3229C34.3628 10.0699 35.9349 9.34362 38.2903 10.1325C40.6457 10.9215 41.4631 12.4481 40.7085 14.7011ZM31.885 38.7773L40.0258 14.4725C40.6775 12.5267 40.0873 11.3419 38.1074 10.6787C36.1616 10.027 34.9427 10.6058 34.2909 12.5516L26.1501 36.8565C25.4984 38.8022 26.0887 39.987 28.0686 40.6502C30.0143 41.3019 31.2333 40.7231 31.885 38.7773ZM40.9757 34.5328L44.8861 22.8583C45.5835 20.776 45.2432 19.9786 43.2974 19.3269C41.4199 18.698 40.7962 17.0464 41.5623 14.7593C42.2368 12.7453 43.7179 11.9505 45.5613 12.5679L46.7561 12.9681C52.7981 14.9919 54.3189 18.2727 52.1808 24.6562L47.8817 37.4913C45.7436 43.8748 42.5535 45.5778 36.5114 43.554L35.3167 43.1538C33.4733 42.5364 32.7697 41.0099 33.4443 38.9959C34.2104 36.7088 35.7031 35.766 37.5806 36.3949C39.5263 37.0466 40.2783 36.6151 40.9757 34.5328ZM45.5688 23.087L41.6585 34.7615C40.8581 37.151 39.7189 37.7186 37.3976 36.9411C35.9639 36.4609 34.7902 37.2447 34.127 39.2246C33.5553 40.9314 34.0318 42.116 35.4996 42.6077L36.6944 43.0078C42.2927 44.883 45.1638 43.3389 47.199 37.2627L51.498 24.4275C53.5332 18.3513 52.1714 15.3894 46.5731 13.5143L45.3784 13.1141C43.9105 12.6225 42.8167 13.2812 42.245 14.988C41.5818 16.9678 42.0466 18.3005 43.4804 18.7807C45.8016 19.5582 46.3692 20.6974 45.5688 23.087ZM65.1132 25.6089C63.065 24.9229 61.573 25.4102 61.0699 26.9122C60.6354 28.2094 61.4305 29.4628 64.8411 32.6553C70.6391 38.1282 71.2609 41.1459 69.8774 45.2763C68.2195 50.2261 63.0471 52.9735 56.1857 50.6754C52.9428 49.5892 49.4512 47.3186 48.4544 43.8336C47.8878 42.0113 48.8009 40.4189 50.7486 39.7045C52.6964 38.9901 54.1642 39.4817 55.0269 41.2134C55.7988 42.7628 57.2998 43.9489 58.5628 44.372C60.7134 45.0923 62.1713 44.5935 62.7315 42.9208C63.1774 41.5895 62.4619 40.4387 59.0513 37.2461C53.7421 32.2408 52.4602 29.1538 53.958 24.682C55.7302 19.3909 61.0156 17.2128 67.0577 19.2365C71.0858 20.5857 73.7348 22.9916 74.6865 26.1578C75.1512 27.6043 74.284 28.9464 72.4957 29.6382C70.5706 30.3982 68.7841 29.8378 67.819 28.0718C67.1718 26.9438 66.069 25.929 65.1132 25.6089ZM65.2961 25.0627C66.4226 25.44 67.7073 26.5917 68.4227 27.8564C69.263 29.3148 70.5261 29.7378 72.1891 29.08C73.6243 28.5356 74.3546 27.3755 74.0374 26.2821C73.1083 23.2753 70.698 21.0633 66.8748 19.7827C61.2082 17.8847 56.31 19.9268 54.6407 24.9106C53.2229 29.1435 54.3914 32.0026 59.53 36.837C63.1112 40.2005 63.9516 41.5451 63.4143 43.1495C62.7625 45.0952 60.8718 45.7528 58.3799 44.9181C56.8096 44.3922 55.161 42.9668 54.4232 41.4288C53.6967 39.9706 52.7068 39.639 51.0552 40.2627C49.4491 40.8638 48.6844 42.2402 49.1035 43.7093C49.9418 46.5338 52.6137 48.8715 56.3687 50.1292C62.4108 52.153 67.4911 50.1339 69.1947 45.0477C70.6353 40.7465 69.5352 37.9103 64.3624 33.0645C60.8154 29.7124 59.8612 28.2538 60.3872 26.6835C60.9932 24.8743 62.9066 24.2624 65.2961 25.0627ZM78.9153 58.2885C71.9174 55.9446 69.7265 51.604 72.0704 44.6062L75.775 33.5461C78.1303 26.514 82.4139 24.38 89.3776 26.7125C93.9519 28.2446 96.3038 31.4242 96.7098 34.066C96.9466 35.6259 95.9315 36.9564 94.1435 37.4206C92.1164 37.9185 90.6033 37.2219 89.7976 35.4334C89.4118 34.5449 88.7637 33.9861 87.6714 33.6202C84.7357 32.6369 83.5156 34.0127 82.5094 37.0166L79.5366 45.892C78.4276 49.2032 79.0172 50.8434 81.7139 51.7467C82.9428 52.1583 83.8081 52.0685 84.6286 51.546C86.2238 50.5237 87.8171 50.8675 89.2036 52.5089C90.5218 54.1273 90.4854 55.7097 89.0832 57.0624C87.2363 58.8356 83.9333 59.9693 78.9153 58.2885ZM79.0982 57.7423C83.1263 59.0915 86.4169 58.6751 88.5488 56.6176C89.723 55.4923 89.7476 54.1718 88.7022 52.8724C87.5089 51.4477 86.3822 51.1842 85.0604 52.0703C84.1033 52.6609 82.9305 52.7616 81.531 52.2928C78.4246 51.2524 77.6419 49.2818 78.8539 45.6633L81.8267 36.788C83.0501 33.1354 84.7479 32.0336 87.8543 33.0741C89.1173 33.4971 89.9815 34.2042 90.4354 35.2294C91.1276 36.7901 92.1856 37.2584 93.928 36.8169C95.3288 36.4888 96.1729 35.3288 96.0153 34.0991C95.5642 31.1386 92.9497 28.5164 89.1947 27.2587C82.6064 25.052 78.7101 27.0499 76.4577 33.7747L72.7532 44.8348C70.5122 51.5255 72.4758 55.5242 79.0982 57.7423Z"/>
    </mask>
    <path d="M27.5894 23.2533L27.578 23.2874L25.6457 29.0564C23.3475 35.9177 18.7907 38.0741 11.5993 35.7413C4.62424 33.3291 2.17206 28.6353 4.41306 21.9446L8.00325 11.2259C10.2328 4.56936 15.6782 2.02719 22.6761 4.3711C27.8989 6.12046 30.1482 9.37961 30.6681 12.0215C30.8936 13.5018 29.8443 14.8208 27.9311 15.319C26.0064 15.8512 24.664 15.2118 23.7103 13.4117C23.154 12.3521 22.0625 11.417 21.0384 11.074C17.8637 10.0107 15.6648 11.2484 14.5329 14.6279L11.4801 23.7422C10.4396 26.8486 11.0864 28.3181 13.8514 29.2442C16.514 30.136 17.8812 29.3411 18.9217 26.2347L19.7106 23.8793L17.799 23.2391C15.9557 22.6216 15.2292 21.1634 15.8466 19.3201C16.464 17.4767 17.9223 16.7502 19.7656 17.3677L25.637 19.3343C27.4804 19.9517 28.2068 21.4099 27.5894 23.2533ZM26.8953 23.0587L26.9067 23.0246C27.4212 21.4885 26.8878 20.3606 25.4541 19.8804L19.5827 17.9138C18.149 17.4336 17.0439 18.0126 16.5293 19.5487C16.0148 21.0848 16.5482 22.2127 17.982 22.6929L20.5763 23.5618L19.6044 26.4634C18.4725 29.8429 16.7407 30.8194 13.6684 29.7904C10.4938 28.727 9.66539 26.893 10.7973 23.5135L13.8501 14.3992C15.085 10.7125 17.6712 9.33874 21.2213 10.5279C22.4502 10.9395 23.7123 12.0456 24.314 13.1962C25.1541 14.7685 26.0756 15.191 27.7156 14.7153C29.2531 14.3191 30.154 13.2161 29.9621 12.0888C29.3861 8.93452 26.6236 6.30076 22.4931 4.91728C15.8707 2.69914 10.8126 5.10525 8.68597 11.4546L5.09579 22.1733C2.95768 28.5567 5.18267 32.9087 11.7822 35.1951C18.5981 37.4022 22.7677 35.3818 24.963 28.8277L26.8953 23.0587ZM40.7085 14.7011L32.5677 39.006C31.8131 41.259 30.241 41.9853 27.8856 41.1964C25.5302 40.4074 24.7128 38.8808 25.4674 36.6278L33.6082 12.3229C34.3628 10.0699 35.9349 9.34362 38.2903 10.1325C40.6457 10.9215 41.4631 12.4481 40.7085 14.7011ZM31.885 38.7773L40.0258 14.4725C40.6775 12.5267 40.0873 11.3419 38.1074 10.6787C36.1616 10.027 34.9427 10.6058 34.2909 12.5516L26.1501 36.8565C25.4984 38.8022 26.0887 39.987 28.0686 40.6502C30.0143 41.3019 31.2333 40.7231 31.885 38.7773ZM40.9757 34.5328L44.8861 22.8583C45.5835 20.776 45.2432 19.9786 43.2974 19.3269C41.4199 18.698 40.7962 17.0464 41.5623 14.7593C42.2368 12.7453 43.7179 11.9505 45.5613 12.5679L46.7561 12.9681C52.7981 14.9919 54.3189 18.2727 52.1808 24.6562L47.8817 37.4913C45.7436 43.8748 42.5535 45.5778 36.5114 43.554L35.3167 43.1538C33.4733 42.5364 32.7697 41.0099 33.4443 38.9959C34.2104 36.7088 35.7031 35.766 37.5806 36.3949C39.5263 37.0466 40.2783 36.6151 40.9757 34.5328ZM45.5688 23.087L41.6585 34.7615C40.8581 37.151 39.7189 37.7186 37.3976 36.9411C35.9639 36.4609 34.7902 37.2447 34.127 39.2246C33.5553 40.9314 34.0318 42.116 35.4996 42.6077L36.6944 43.0078C42.2927 44.883 45.1638 43.3389 47.199 37.2627L51.498 24.4275C53.5332 18.3513 52.1714 15.3894 46.5731 13.5143L45.3784 13.1141C43.9105 12.6225 42.8167 13.2812 42.245 14.988C41.5818 16.9678 42.0466 18.3005 43.4804 18.7807C45.8016 19.5582 46.3692 20.6974 45.5688 23.087ZM65.1132 25.6089C63.065 24.9229 61.573 25.4102 61.0699 26.9122C60.6354 28.2094 61.4305 29.4628 64.8411 32.6553C70.6391 38.1282 71.2609 41.1459 69.8774 45.2763C68.2195 50.2261 63.0471 52.9735 56.1857 50.6754C52.9428 49.5892 49.4512 47.3186 48.4544 43.8336C47.8878 42.0113 48.8009 40.4189 50.7486 39.7045C52.6964 38.9901 54.1642 39.4817 55.0269 41.2134C55.7988 42.7628 57.2998 43.9489 58.5628 44.372C60.7134 45.0923 62.1713 44.5935 62.7315 42.9208C63.1774 41.5895 62.4619 40.4387 59.0513 37.2461C53.7421 32.2408 52.4602 29.1538 53.958 24.682C55.7302 19.3909 61.0156 17.2128 67.0577 19.2365C71.0858 20.5857 73.7348 22.9916 74.6865 26.1578C75.1512 27.6043 74.284 28.9464 72.4957 29.6382C70.5706 30.3982 68.7841 29.8378 67.819 28.0718C67.1718 26.9438 66.069 25.929 65.1132 25.6089ZM65.2961 25.0627C66.4226 25.44 67.7073 26.5917 68.4227 27.8564C69.263 29.3148 70.5261 29.7378 72.1891 29.08C73.6243 28.5356 74.3546 27.3755 74.0374 26.2821C73.1083 23.2753 70.698 21.0633 66.8748 19.7827C61.2082 17.8847 56.31 19.9268 54.6407 24.9106C53.2229 29.1435 54.3914 32.0026 59.53 36.837C63.1112 40.2005 63.9516 41.5451 63.4143 43.1495C62.7625 45.0952 60.8718 45.7528 58.3799 44.9181C56.8096 44.3922 55.161 42.9668 54.4232 41.4288C53.6967 39.9706 52.7068 39.639 51.0552 40.2627C49.4491 40.8638 48.6844 42.2402 49.1035 43.7093C49.9418 46.5338 52.6137 48.8715 56.3687 50.1292C62.4108 52.153 67.4911 50.1339 69.1947 45.0477C70.6353 40.7465 69.5352 37.9103 64.3624 33.0645C60.8154 29.7124 59.8612 28.2538 60.3872 26.6835C60.9932 24.8743 62.9066 24.2624 65.2961 25.0627ZM78.9153 58.2885C71.9174 55.9446 69.7265 51.604 72.0704 44.6062L75.775 33.5461C78.1303 26.514 82.4139 24.38 89.3776 26.7125C93.9519 28.2446 96.3038 31.4242 96.7098 34.066C96.9466 35.6259 95.9315 36.9564 94.1435 37.4206C92.1164 37.9185 90.6033 37.2219 89.7976 35.4334C89.4118 34.5449 88.7637 33.9861 87.6714 33.6202C84.7357 32.6369 83.5156 34.0127 82.5094 37.0166L79.5366 45.892C78.4276 49.2032 79.0172 50.8434 81.7139 51.7467C82.9428 52.1583 83.8081 52.0685 84.6286 51.546C86.2238 50.5237 87.8171 50.8675 89.2036 52.5089C90.5218 54.1273 90.4854 55.7097 89.0832 57.0624C87.2363 58.8356 83.9333 59.9693 78.9153 58.2885ZM79.0982 57.7423C83.1263 59.0915 86.4169 58.6751 88.5488 56.6176C89.723 55.4923 89.7476 54.1718 88.7022 52.8724C87.5089 51.4477 86.3822 51.1842 85.0604 52.0703C84.1033 52.6609 82.9305 52.7616 81.531 52.2928C78.4246 51.2524 77.6419 49.2818 78.8539 45.6633L81.8267 36.788C83.0501 33.1354 84.7479 32.0336 87.8543 33.0741C89.1173 33.4971 89.9815 34.2042 90.4354 35.2294C91.1276 36.7901 92.1856 37.2584 93.928 36.8169C95.3288 36.4888 96.1729 35.3288 96.0153 34.0991C95.5642 31.1386 92.9497 28.5164 89.1947 27.2587C82.6064 25.052 78.7101 27.0499 76.4577 33.7747L72.7532 44.8348C70.5122 51.5255 72.4758 55.5242 79.0982 57.7423Z" fill="#0099FF"/>
    <path d="M11.5993 35.7413L10.6187 38.5765L10.6461 38.586L10.6736 38.5949L11.5993 35.7413ZM30.6681 12.0215L33.6338 11.5696L33.6241 11.5057L33.6116 11.4423L30.6681 12.0215ZM27.9311 15.319L27.1752 12.4157L27.1533 12.4214L27.1315 12.4275L27.9311 15.319ZM23.7103 13.4117L21.0541 14.8062L21.0593 14.8161L23.7103 13.4117ZM19.7106 23.8793L22.5553 24.8322L23.5081 21.9875L20.6634 21.0347L19.7106 23.8793ZM20.5763 23.5618L23.421 24.5146L24.3738 21.67L21.5291 20.7172L20.5763 23.5618ZM24.314 13.1962L21.6555 14.5864L21.6617 14.5983L21.668 14.6101L24.314 13.1962ZM27.7156 14.7153L26.967 11.8102L26.9232 11.8215L26.8798 11.8341L27.7156 14.7153ZM29.9621 12.0888L32.9196 11.5854L32.9166 11.5676L32.9133 11.5498L29.9621 12.0888ZM11.7822 35.1951L10.8001 38.0298L10.829 38.0398L10.858 38.0492L11.7822 35.1951ZM24.7448 22.3004L24.7333 22.3346L30.4227 24.2402L30.4341 24.2061L24.7448 22.3004ZM24.7333 22.3346L22.801 28.1036L28.4904 30.0092L30.4227 24.2402L24.7333 22.3346ZM22.801 28.1036C21.8009 31.0895 20.4962 32.5066 19.1697 33.1371C17.8088 33.7839 15.7403 33.9307 12.5249 32.8877L10.6736 38.5949C14.6497 39.8847 18.4553 40.1198 21.7452 38.5562C25.0695 36.9763 27.1923 33.8846 28.4904 30.0092L22.801 28.1036ZM12.5798 32.9061C9.52119 31.8483 7.93886 30.4581 7.21043 29.0607C6.49748 27.6929 6.30433 25.7439 7.25774 22.8974L1.56839 20.9918C0.280787 24.836 0.193228 28.5792 1.88987 31.8341C3.57103 35.0593 6.70231 37.2221 10.6187 38.5765L12.5798 32.9061ZM7.25774 22.8974L10.8479 12.1787L5.15858 10.2731L1.56839 20.9918L7.25774 22.8974ZM10.8479 12.1787C11.7618 9.45033 13.2067 7.89553 14.8211 7.14144C16.4608 6.37557 18.7436 6.21775 21.7233 7.21577L23.6289 1.52643C19.6106 0.180546 15.6718 0.121847 12.2819 1.70522C8.86685 3.30037 6.4743 6.34491 5.15858 10.2731L10.8479 12.1787ZM21.7233 7.21577C26.0718 8.67232 27.4414 11.1619 27.7245 12.6007L33.6116 11.4423C32.8551 7.59734 29.7259 3.56861 23.6289 1.52643L21.7233 7.21577ZM27.7023 12.4734C27.6954 12.4278 27.6954 12.3536 27.719 12.2708C27.7419 12.1902 27.7744 12.1453 27.782 12.1361C27.792 12.1239 27.6541 12.291 27.1752 12.4157L28.6869 18.2222C31.5125 17.4865 34.1705 15.0922 33.6338 11.5696L27.7023 12.4734ZM27.1315 12.4275C26.8815 12.4966 26.7424 12.5019 26.6901 12.5002C26.6485 12.4988 26.6656 12.494 26.7053 12.5122C26.8 12.5556 26.6436 12.5401 26.3612 12.0072L21.0593 14.8161C21.7307 16.0833 22.7223 17.2876 24.2078 17.9677C25.7177 18.6589 27.2957 18.6073 28.7307 18.2104L27.1315 12.4275ZM26.3665 12.0171C25.4719 10.3133 23.7912 8.83225 21.9912 8.22936L20.0856 13.9187C20.1532 13.9413 20.3456 14.0331 20.5812 14.2379C20.8113 14.438 20.9727 14.6511 21.0541 14.8062L26.3665 12.0171ZM21.9912 8.22936C19.8799 7.52219 17.6131 7.4337 15.5729 8.55676C13.5855 9.65075 12.3894 11.5816 11.6882 13.675L17.3775 15.5807C17.8083 14.2946 18.2776 13.9169 18.4663 13.813C18.6022 13.7382 19.0222 13.5625 20.0856 13.9187L21.9912 8.22936ZM11.6882 13.675L8.63538 22.7894L14.3247 24.695L17.3775 15.5807L11.6882 13.675ZM8.63538 22.7894C8.05908 24.5099 7.64877 26.5697 8.48557 28.5026C9.37078 30.5474 11.2295 31.5298 12.8986 32.0889L14.8042 26.3995C13.7082 26.0324 13.8611 25.817 13.9917 26.1189C14.0391 26.2284 13.9983 26.2301 14.015 25.9979C14.0331 25.7475 14.1106 25.3342 14.3247 24.695L8.63538 22.7894ZM12.8986 32.0889C14.5432 32.6397 16.6022 32.9555 18.5211 31.8215C20.3012 30.7696 21.1949 28.8938 21.7664 27.1875L16.077 25.2819C15.8613 25.9259 15.6729 26.3117 15.533 26.5319C15.4011 26.7393 15.3651 26.7172 15.4686 26.6561C15.5928 26.5827 15.6861 26.5873 15.6342 26.5871C15.5425 26.5867 15.2897 26.5622 14.8042 26.3995L12.8986 32.0889ZM21.7664 27.1875L22.5553 24.8322L16.866 22.9265L16.077 25.2819L21.7664 27.1875ZM20.6634 21.0347L18.7518 20.3944L16.8462 26.0837L18.7578 26.724L20.6634 21.0347ZM18.7518 20.3944C18.5692 20.3332 18.4995 20.2796 18.4954 20.2763C18.4938 20.2751 18.5062 20.2848 18.5254 20.3081C18.5449 20.3318 18.5662 20.3633 18.5853 20.4015C18.6043 20.4397 18.6166 20.4758 18.6238 20.5056C18.6308 20.5349 18.6311 20.5507 18.6311 20.5487C18.6309 20.5434 18.6301 20.4555 18.6913 20.2729L13.0019 18.3672C12.5052 19.8503 12.4436 21.5291 13.2148 23.077C13.986 24.625 15.3632 25.587 16.8462 26.0837L18.7518 20.3944ZM18.6913 20.2729C18.7525 20.0902 18.8061 20.0205 18.8093 20.0164C18.8106 20.0148 18.8009 20.0273 18.7776 20.0464C18.7539 20.0659 18.7223 20.0873 18.6841 20.1063C18.646 20.1253 18.6099 20.1376 18.5801 20.1448C18.5508 20.1519 18.535 20.1521 18.537 20.1521C18.5422 20.152 18.6302 20.1512 18.8128 20.2123L20.7184 14.523C19.2354 14.0262 17.5566 13.9647 16.0087 14.7358C14.4607 15.507 13.4987 16.8842 13.0019 18.3672L18.6913 20.2729ZM18.8128 20.2123L24.6842 22.1789L26.5898 16.4896L20.7184 14.523L18.8128 20.2123ZM24.6842 22.1789C24.8668 22.2401 24.9366 22.2937 24.9406 22.297C24.9422 22.2982 24.9298 22.2885 24.9106 22.2652C24.8912 22.2415 24.8698 22.21 24.8508 22.1718C24.8318 22.1336 24.8194 22.0975 24.8123 22.0677C24.8052 22.0384 24.8049 22.0226 24.805 22.0246C24.8051 22.0299 24.8059 22.1178 24.7448 22.3004L30.4341 24.2061C30.9308 22.723 30.9924 21.0442 30.2212 19.4963C29.4501 17.9484 28.0729 16.9863 26.5898 16.4896L24.6842 22.1789ZM29.7399 24.0115L29.7514 23.9774L24.062 22.0718L24.0506 22.1059L29.7399 24.0115ZM29.7514 23.9774C30.1708 22.7252 30.2974 21.2244 29.6314 19.7918C28.9515 18.3295 27.6925 17.4664 26.4069 17.0358L24.5013 22.7251C24.581 22.7518 24.5513 22.7553 24.4702 22.6897C24.3808 22.6172 24.2707 22.4935 24.1906 22.3213C24.0211 21.9566 24.1571 21.7878 24.062 22.0718L29.7514 23.9774ZM26.4069 17.0358L20.5355 15.0692L18.6299 20.7585L24.5013 22.7251L26.4069 17.0358ZM20.5355 15.0692C19.2499 14.6385 17.725 14.5692 16.3015 15.327C14.907 16.0695 14.1041 17.3437 13.6847 18.5959L19.374 20.5015C19.4691 20.2176 19.4761 20.4343 19.1211 20.6233C18.9534 20.7125 18.791 20.745 18.676 20.7489C18.5717 20.7525 18.5502 20.7318 18.6299 20.7585L20.5355 15.0692ZM13.6847 18.5959C13.2653 19.8481 13.1387 21.3489 13.8047 22.7815C14.4845 24.2438 15.7435 25.1069 17.0292 25.5375L18.9348 19.8482C18.8551 19.8215 18.8848 19.818 18.9658 19.8837C19.0553 19.9561 19.1654 20.0798 19.2455 20.2521C19.415 20.6167 19.2789 20.7855 19.374 20.5015L13.6847 18.5959ZM17.0292 25.5375L19.6235 26.4065L21.5291 20.7172L18.9348 19.8482L17.0292 25.5375ZM17.7316 22.609L16.7598 25.5106L22.4491 27.4162L23.421 24.5146L17.7316 22.609ZM16.7598 25.5106C16.531 26.1935 16.3144 26.6226 16.1403 26.8821C16.0567 27.0066 15.9917 27.0788 15.9516 27.1177C15.9317 27.137 15.9173 27.1486 15.9089 27.155C15.9005 27.1613 15.8963 27.1637 15.8958 27.1639C15.8954 27.1642 15.8954 27.1642 15.8956 27.164C15.8959 27.1639 15.8961 27.1638 15.8961 27.1638C15.896 27.1638 15.8953 27.1641 15.8938 27.1646C15.8923 27.1651 15.8896 27.1659 15.8855 27.1669C15.871 27.1704 15.8248 27.1799 15.7346 27.1799C15.5414 27.1798 15.1888 27.1358 14.6212 26.9457L12.7156 32.635C14.6206 33.2731 16.813 33.5295 18.8323 32.3962C20.7657 31.3111 21.8007 29.3521 22.4491 27.4162L16.7598 25.5106ZM14.6212 26.9457C14.021 26.7446 13.683 26.5556 13.5044 26.4237C13.4204 26.3616 13.3802 26.3183 13.3642 26.2993C13.3498 26.2822 13.3475 26.2758 13.3474 26.2755C13.3469 26.2745 13.338 26.2556 13.3295 26.2057C13.3207 26.1533 13.3115 26.0601 13.3185 25.9145C13.3331 25.6106 13.4148 25.1447 13.642 24.4663L7.95266 22.5607C7.29961 24.5104 6.95451 26.7179 7.88842 28.7654C8.85093 30.8757 10.783 31.9877 12.7156 32.635L14.6212 26.9457ZM13.642 24.4663L16.6948 15.352L11.0055 13.4464L7.95266 22.5607L13.642 24.4663ZM16.6948 15.352C17.1568 13.9728 17.7189 13.472 18.0656 13.2894C18.3855 13.1209 19.026 12.9563 20.2685 13.3725L22.1741 7.68318C19.8665 6.91025 17.4389 6.83803 15.2694 7.98081C13.1267 9.10943 11.7783 11.1389 11.0055 13.4464L16.6948 15.352ZM20.2685 13.3725C20.7297 13.527 21.3968 14.0917 21.6555 14.5864L26.9725 11.8061C26.0278 9.99947 24.1708 8.35194 22.1741 7.68318L20.2685 13.3725ZM21.668 14.6101C22.218 15.6393 23.0616 16.8208 24.4858 17.4604C25.9467 18.1165 27.4012 17.9302 28.5515 17.5965L26.8798 11.8341C26.7665 11.867 26.6867 11.884 26.6356 11.8926C26.5848 11.9012 26.5704 11.9 26.5857 11.8998C26.6024 11.8997 26.6489 11.9009 26.717 11.9143C26.7867 11.9279 26.8647 11.9515 26.9439 11.9871C27.0228 12.0225 27.0856 12.062 27.1305 12.0959C27.1741 12.1286 27.193 12.15 27.1895 12.1462C27.1853 12.1416 27.1614 12.1144 27.1201 12.0533C27.0788 11.9921 27.0251 11.9044 26.9599 11.7824L21.668 14.6101ZM28.4643 17.6204C30.8055 17.017 33.48 14.8773 32.9196 11.5854L27.0047 12.5922C26.9721 12.401 26.9882 12.2104 27.038 12.0465C27.0861 11.8883 27.1547 11.7887 27.1947 11.7413C27.2684 11.654 27.2395 11.74 26.967 11.8102L28.4643 17.6204ZM32.9133 11.5498C32.0699 6.93108 28.1737 3.65617 23.4459 2.07261L21.5403 7.76195C25.0734 8.94535 26.7024 10.938 27.011 12.6277L32.9133 11.5498ZM23.4459 2.07261C19.6203 0.791218 15.8628 0.724341 12.6185 2.26232C9.35405 3.80991 7.09766 6.75081 5.8413 10.5018L11.5306 12.4074C12.401 9.809 13.737 8.37219 15.1888 7.68394C16.6609 6.98607 18.7436 6.8252 21.5403 7.76195L23.4459 2.07261ZM5.8413 10.5018L2.25112 21.2205L7.94046 23.1261L11.5306 12.4074L5.8413 10.5018ZM2.25112 21.2205C1.02533 24.8801 0.888131 28.4608 2.49304 31.5898C4.08623 34.6959 7.08285 36.742 10.8001 38.0298L12.7643 32.3604C9.88202 31.3619 8.46638 30.0888 7.83172 28.8514C7.20878 27.6369 7.02813 25.8499 7.94046 23.1261L2.25112 21.2205ZM10.858 38.0492C14.6312 39.271 18.2611 39.5206 21.4111 37.9978C24.5872 36.4623 26.5726 33.4678 27.8076 29.7805L22.1183 27.8749C21.1581 30.7417 19.961 32.0344 18.7996 32.5959C17.612 33.1701 15.7492 33.3263 12.7064 32.341L10.858 38.0492ZM27.8076 29.7805L29.7399 24.0115L24.0506 22.1059L22.1183 27.8749L27.8076 29.7805ZM37.8639 13.7483L29.723 38.0532L35.4124 39.9588L43.5532 15.6539L37.8639 13.7483ZM29.723 38.0532C29.616 38.3727 29.5189 38.5192 29.4825 38.5658C29.4564 38.5993 29.4808 38.5595 29.559 38.523C29.73 38.4432 29.6083 38.6095 28.8384 38.3517L26.9328 44.041C28.5184 44.5721 30.3603 44.7697 32.0949 43.9608C33.8654 43.1351 34.8735 41.5677 35.4124 39.9588L29.723 38.0532ZM28.8384 38.3517C28.0686 38.0938 28.0716 37.8877 28.16 38.0544C28.2005 38.1307 28.196 38.1771 28.1953 38.1347C28.1944 38.0755 28.2051 37.9001 28.3121 37.5806L22.6227 35.675C22.0838 37.2839 21.9445 39.1423 22.8605 40.8677C23.7579 42.5582 25.3473 43.51 26.9328 44.041L28.8384 38.3517ZM28.3121 37.5806L36.4529 13.2757L30.7636 11.3701L22.6227 35.675L28.3121 37.5806ZM36.4529 13.2757C36.5599 12.9562 36.6571 12.8097 36.6934 12.7631C36.7195 12.7296 36.6952 12.7694 36.6169 12.8059C36.4459 12.8857 36.5677 12.7194 37.3375 12.9772L39.2431 7.28788C37.6576 6.7568 35.8156 6.5592 34.081 7.36814C32.3106 8.19381 31.3025 9.76118 30.7636 11.3701L36.4529 13.2757ZM37.3375 12.9772C38.1073 13.2351 38.1044 13.4412 38.0159 13.2745C37.9754 13.1982 37.98 13.1518 37.9806 13.1942C37.9815 13.2534 37.9709 13.4288 37.8639 13.7483L43.5532 15.6539C44.0921 14.045 44.2314 12.1866 43.3155 10.4612C42.418 8.77066 40.8287 7.81895 39.2431 7.28788L37.3375 12.9772ZM34.7297 39.7301L42.8705 15.4253L37.1811 13.5196L29.0403 37.8245L34.7297 39.7301ZM42.8705 15.4253C43.3211 14.0798 43.5556 12.3779 42.7325 10.7446C41.9133 9.11884 40.4109 8.28646 39.0602 7.83405L37.1546 13.5234C37.2253 13.5471 37.2867 13.5699 37.3394 13.5912C37.3922 13.6125 37.4353 13.6319 37.4699 13.6487C37.5045 13.6656 37.5296 13.6794 37.5465 13.6895C37.5634 13.6995 37.5715 13.7053 37.5724 13.706C37.5739 13.707 37.5462 13.6871 37.5051 13.6405C37.4847 13.6173 37.4623 13.5889 37.4394 13.5553C37.4164 13.5215 37.3944 13.4845 37.3744 13.4446C37.3543 13.4048 37.3374 13.3646 37.3236 13.3252C37.3098 13.2859 37.3001 13.2497 37.2933 13.2178C37.2796 13.1536 37.2796 13.1149 37.2797 13.1113C37.2797 13.1097 37.2797 13.1169 37.2779 13.1335C37.2761 13.1502 37.2726 13.1757 37.2659 13.2105C37.2592 13.2453 37.2495 13.2884 37.2355 13.3404C37.2216 13.3923 37.2038 13.4519 37.1811 13.5196L42.8705 15.4253ZM39.0602 7.83405C37.7135 7.38299 36.0247 7.15306 34.4006 7.94383C32.7626 8.74136 31.9058 10.2269 31.4463 11.5988L37.1356 13.5044C37.1576 13.4388 37.1786 13.3824 37.1981 13.3345C37.2177 13.2866 37.2353 13.2481 37.2502 13.2179C37.2805 13.1568 37.2979 13.1339 37.2957 13.137C37.2926 13.141 37.2694 13.1712 37.2209 13.2127C37.1969 13.2332 37.1682 13.2552 37.1349 13.2771C37.1014 13.2991 37.0654 13.3198 37.0272 13.3384C36.989 13.357 36.9511 13.3723 36.9145 13.3846C36.878 13.3969 36.8448 13.4055 36.8164 13.4113C36.759 13.423 36.7271 13.4223 36.7292 13.4223C36.7325 13.4224 36.7681 13.4234 36.8413 13.4376C36.8775 13.4446 36.9217 13.4546 36.9743 13.4687C37.0269 13.4828 37.0869 13.5007 37.1546 13.5234L39.0602 7.83405ZM31.4463 11.5988L23.3055 35.9036L28.9948 37.8093L37.1356 13.5044L31.4463 11.5988ZM23.3055 35.9036C22.8548 37.2491 22.6204 38.951 23.4434 40.5843C24.2626 42.2101 25.7651 43.0425 27.1158 43.4949L29.0214 37.8055C28.9506 37.7818 28.8893 37.759 28.8365 37.7378C28.7837 37.7165 28.7406 37.697 28.706 37.6802C28.6714 37.6633 28.6464 37.6495 28.6294 37.6394C28.6125 37.6294 28.6044 37.6236 28.6035 37.6229C28.602 37.6219 28.6298 37.6418 28.6708 37.6884C28.6912 37.7116 28.7137 37.74 28.7366 37.7736C28.7595 37.8074 28.7815 37.8444 28.8016 37.8843C28.8217 37.9242 28.8386 37.9643 28.8523 38.0037C28.8661 38.043 28.8759 38.0792 28.8827 38.1111C28.8964 38.1753 28.8963 38.214 28.8962 38.2176C28.8962 38.2192 28.8962 38.212 28.8981 38.1954C28.8999 38.1787 28.9034 38.1532 28.9101 38.1184C28.9168 38.0836 28.9265 38.0405 28.9404 37.9885C28.9543 37.9366 28.9721 37.877 28.9948 37.8093L23.3055 35.9036ZM27.1158 43.4949C28.4624 43.9459 30.1512 44.1758 31.7753 43.3851C33.4133 42.5875 34.2701 41.102 34.7297 39.7301L29.0403 37.8245C29.0183 37.8901 28.9973 37.9465 28.9778 37.9944C28.9583 38.0423 28.9407 38.0808 28.9257 38.111C28.8954 38.1721 28.878 38.195 28.8803 38.1919C28.8833 38.1879 28.9065 38.1577 28.955 38.1162C28.979 38.0957 29.0077 38.0737 29.0411 38.0518C29.0745 38.0298 29.1106 38.0091 29.1488 37.9905C29.1869 37.9719 29.2248 37.9566 29.2614 37.9443C29.298 37.932 29.3311 37.9234 29.3596 37.9176C29.417 37.9059 29.4489 37.9066 29.4467 37.9066C29.4434 37.9065 29.4078 37.9055 29.3346 37.8913C29.2984 37.8843 29.2542 37.8743 29.2016 37.8602C29.1491 37.8461 29.0891 37.8282 29.0214 37.8055L27.1158 43.4949ZM43.8204 35.4856L47.7308 23.8111L42.0414 21.9055L38.1311 33.58L43.8204 35.4856ZM47.7308 23.8111C48.0891 22.7413 48.5726 21.0166 47.8232 19.335C47.0272 17.5488 45.3306 16.8441 44.2502 16.4822L42.3446 22.1715C42.5162 22.229 42.634 22.2762 42.7117 22.3115C42.7898 22.347 42.8069 22.3613 42.7858 22.3471C42.7627 22.3314 42.6896 22.2787 42.6001 22.1783C42.5066 22.0736 42.4145 21.9382 42.3427 21.7772C42.1946 21.4449 42.2218 21.2085 42.2191 21.2369C42.2176 21.2524 42.2102 21.3132 42.1815 21.4319C42.1531 21.5497 42.1087 21.7045 42.0414 21.9055L47.7308 23.8111ZM44.2502 16.4822C44.1086 16.4348 44.0923 16.4027 44.1315 16.438C44.1786 16.4802 44.222 16.5443 44.2435 16.601C44.2777 16.6912 44.1552 16.4636 44.4069 15.7121L38.7176 13.8065C38.2032 15.3421 38.0096 17.0839 38.6335 18.7288C39.2985 20.4822 40.6993 21.6205 42.3446 22.1715L44.2502 16.4822ZM44.4069 15.7121C44.4908 15.4615 44.5716 15.3346 44.6077 15.2868C44.6396 15.2445 44.6287 15.2731 44.5589 15.3111C44.4857 15.351 44.4192 15.3622 44.3941 15.3633C44.378 15.3641 44.4443 15.3576 44.6085 15.4126L46.5141 9.72326C44.9794 9.20921 43.2551 9.18866 41.6881 10.0425C40.1568 10.8769 39.2208 12.304 38.7176 13.8065L44.4069 15.7121ZM44.6085 15.4126L45.8032 15.8128L47.7089 10.1234L46.5141 9.72326L44.6085 15.4126ZM45.8032 15.8128C48.5265 16.7249 49.4618 17.6794 49.8146 18.4399C50.1925 19.2543 50.3274 20.7438 49.3361 23.7034L55.0254 25.609C56.1722 22.1851 56.6158 18.8424 55.2573 15.9146C53.8738 12.9329 51.0277 11.2351 47.7089 10.1234L45.8032 15.8128ZM49.3361 23.7034L45.037 36.5385L50.7263 38.4441L55.0254 25.609L49.3361 23.7034ZM45.037 36.5385C44.0457 39.4981 43.0409 40.6058 42.2488 41.0283C41.509 41.4229 40.1875 41.6215 37.4642 40.7093L35.5586 46.3987C38.8775 47.5103 42.1721 47.8693 45.0723 46.3224C47.9203 44.8035 49.5795 41.868 50.7263 38.4441L45.037 36.5385ZM37.4642 40.7093L36.2695 40.3092L34.3639 45.9985L35.5586 46.3987L37.4642 40.7093ZM36.2695 40.3092C36.1053 40.2542 36.0563 40.2091 36.0687 40.2194C36.088 40.2354 36.1344 40.2844 36.1688 40.3603C36.2016 40.4327 36.193 40.4621 36.1931 40.4091C36.1931 40.3492 36.2051 40.1992 36.289 39.9487L30.5996 38.0431C30.0964 39.5455 29.9839 41.2485 30.7037 42.8369C31.4403 44.4623 32.8291 45.4845 34.3639 45.9985L36.2695 40.3092ZM36.289 39.9487C36.5407 39.1972 36.7756 39.0893 36.6939 39.1407C36.6426 39.173 36.5694 39.198 36.5064 39.2034C36.4538 39.2079 36.4861 39.1921 36.6277 39.2396L38.5334 33.5502C36.8881 32.9991 35.0843 33.064 33.4974 34.0631C32.0085 35.0004 31.114 36.5074 30.5996 38.0431L36.289 39.9487ZM36.6277 39.2396C37.7082 39.6014 39.4869 40.0608 41.1982 39.1144C42.8092 38.2234 43.4621 36.5554 43.8204 35.4856L38.1311 33.58C38.0638 33.781 38.006 33.9313 37.9577 34.0424C37.9091 34.1544 37.8784 34.2074 37.8702 34.2207C37.8552 34.245 37.976 34.0399 38.2944 33.8639C38.4486 33.7786 38.6037 33.726 38.7414 33.6987C38.8733 33.6725 38.9634 33.6744 38.9913 33.6758C39.0167 33.6772 38.9945 33.6783 38.9107 33.6596C38.8274 33.641 38.705 33.6077 38.5334 33.5502L36.6277 39.2396ZM42.7241 22.1341L38.8138 33.8087L44.5031 35.7143L48.4135 24.0398L42.7241 22.1341ZM38.8138 33.8087C38.6637 34.2568 38.5472 34.464 38.4983 34.5361C38.4641 34.5865 38.533 34.4694 38.7381 34.365C38.8326 34.317 38.921 34.2901 38.9889 34.277C39.0533 34.2646 39.0807 34.2682 39.0565 34.2672C38.9904 34.2644 38.7769 34.2392 38.3504 34.0964L36.4448 39.7857C37.8271 40.2487 39.6817 40.6168 41.4586 39.7128C43.2175 38.818 44.0344 37.1138 44.5031 35.7143L38.8138 33.8087ZM38.3504 34.0964C36.853 33.5949 35.1966 33.7062 33.7693 34.6912C32.4766 35.5834 31.7249 36.9506 31.2824 38.2717L36.9717 40.1774C37.0741 39.8717 37.1692 39.6951 37.2254 39.6093C37.2805 39.5252 37.2763 39.5611 37.1774 39.6293C37.0661 39.7062 36.903 39.776 36.7164 39.7974C36.5397 39.8176 36.4385 39.7836 36.4448 39.7857L38.3504 34.0964ZM31.2824 38.2717C30.8672 39.5112 30.6716 41.0249 31.2677 42.4974C31.9024 44.0655 33.1911 44.9982 34.5468 45.4523L36.4524 39.763C36.3799 39.7387 36.4319 39.7433 36.5341 39.8307C36.6474 39.9274 36.759 40.0725 36.8293 40.2461C36.8956 40.4099 36.8918 40.5159 36.892 40.511C36.8924 40.4991 36.8994 40.3932 36.9717 40.1774L31.2824 38.2717ZM34.5468 45.4523L35.7416 45.8525L37.6472 40.1632L36.4524 39.763L34.5468 45.4523ZM35.7416 45.8525C38.8203 46.8837 41.9469 47.2616 44.7184 45.7512C47.4176 44.2802 48.9601 41.4503 50.0436 38.2155L44.3543 36.3099C43.4026 39.1513 42.4919 40.1315 41.8473 40.4828C41.2749 40.7947 40.1668 41.0071 37.6472 40.1632L35.7416 45.8525ZM50.0436 38.2155L54.3427 25.3803L48.6534 23.4747L44.3543 36.3099L50.0436 38.2155ZM54.3427 25.3803C55.4262 22.1455 55.8994 18.9574 54.6307 16.1574C53.3281 13.2824 50.6046 11.7008 47.5259 10.6696L45.6203 16.359C48.1399 17.2029 48.8965 18.0398 49.1656 18.6336C49.4686 19.3024 49.6051 20.6333 48.6534 23.4747L54.3427 25.3803ZM47.5259 10.6696L46.3312 10.2694L44.4255 15.9588L45.6203 16.359L47.5259 10.6696ZM46.3312 10.2694C44.9754 9.81534 43.385 9.78373 41.9338 10.6531C40.571 11.4696 39.8155 12.7957 39.4003 14.0351L45.0896 15.9408C45.1619 15.725 45.2201 15.6362 45.227 15.6264C45.2298 15.6224 45.169 15.7093 45.0174 15.8001C44.8567 15.8964 44.6802 15.9449 44.5316 15.954C44.3973 15.9621 44.353 15.9345 44.4255 15.9588L46.3312 10.2694ZM39.4003 14.0351C38.9578 15.3563 38.7344 16.9004 39.2289 18.3913C39.7749 20.0372 41.0302 21.1238 42.5275 21.6254L44.4332 15.936C44.4269 15.9339 44.5281 15.9678 44.657 16.0903C44.793 16.2198 44.8812 16.3738 44.9238 16.5022C44.9616 16.6162 44.9434 16.6473 44.95 16.547C44.9568 16.4446 44.9873 16.2465 45.0896 15.9408L39.4003 14.0351ZM42.5275 21.6254C42.954 21.7682 43.1396 21.8767 43.194 21.9143C43.214 21.928 43.19 21.9144 43.146 21.8658C43.0996 21.8144 43.0453 21.7397 42.9988 21.6444C42.8979 21.4376 42.9135 21.3026 42.9104 21.3634C42.906 21.4505 42.8742 21.686 42.7241 22.1341L48.4135 24.0398C48.8822 22.6403 49.2567 20.7879 48.3916 19.0142C47.5176 17.2223 45.8155 16.399 44.4332 15.936L42.5275 21.6254ZM64.8411 32.6553L66.9004 30.4737L66.8912 30.4651L64.8411 32.6553ZM48.4544 43.8336L51.3388 43.0087L51.3293 42.9757L51.3191 42.9429L48.4544 43.8336ZM50.7486 39.7045L49.7156 36.8879L50.7486 39.7045ZM55.0269 41.2134L57.7121 39.8756L55.0269 41.2134ZM59.0513 37.2461L56.9933 39.429L57.0011 39.4363L59.0513 37.2461ZM74.6865 26.1578L71.8135 27.0214L71.8216 27.0485L71.8302 27.0754L74.6865 26.1578ZM72.4957 29.6382L71.4133 26.8403L71.4037 26.844L71.3941 26.8478L72.4957 29.6382ZM67.819 28.0718L70.4516 26.6331L70.4366 26.6057L70.4211 26.5787L67.819 28.0718ZM68.4227 27.8564L65.8115 29.3334L65.8174 29.3438L65.8233 29.3541L68.4227 27.8564ZM72.1891 29.08L71.1252 26.2749L71.1053 26.2825L71.0856 26.2903L72.1891 29.08ZM74.0374 26.2821L76.9186 25.4463L76.9114 25.4213L76.9037 25.3964L74.0374 26.2821ZM59.53 36.837L57.4744 39.022L57.4762 39.0237L59.53 36.837ZM54.4232 41.4288L57.1281 40.1313L57.1184 40.1111L57.1084 40.0911L54.4232 41.4288ZM51.0552 40.2627L52.1067 43.0725L52.1151 43.0693L51.0552 40.2627ZM49.1035 43.7093L46.2186 44.5323L46.2229 44.5476L46.2275 44.563L49.1035 43.7093ZM64.3624 33.0645L62.3018 35.2449L62.3114 35.2539L64.3624 33.0645ZM66.066 22.7642C64.6828 22.3009 63.1009 22.0965 61.5887 22.5857C59.9385 23.1195 58.7612 24.3591 58.2252 25.9594L63.9146 27.865C63.9121 27.8725 63.8759 27.9693 63.7626 28.0843C63.6463 28.2023 63.5196 28.2672 63.4355 28.2944C63.363 28.3179 63.3717 28.298 63.5004 28.306C63.63 28.3141 63.8482 28.349 64.1604 28.4536L66.066 22.7642ZM58.2252 25.9594C57.97 26.7213 57.8768 27.5652 58.0494 28.47C58.2125 29.3252 58.5821 30.0704 59.0013 30.7127C59.7938 31.9269 61.0976 33.2604 62.791 34.8455L66.8912 30.4651C65.174 28.8577 64.375 27.9682 64.0259 27.4334C63.8743 27.2011 63.9134 27.1901 63.9431 27.3457C63.9822 27.5509 63.9525 27.7517 63.9146 27.865L58.2252 25.9594ZM62.7819 34.8369C65.583 37.481 66.768 39.2093 67.2313 40.4899C67.6293 41.59 67.5972 42.6382 67.0327 44.3235L72.7221 46.2291C73.541 43.7841 73.8899 41.2581 72.8734 38.4486C71.9221 35.8194 69.8972 33.3025 66.9004 30.4737L62.7819 34.8369ZM67.0327 44.3235C66.4594 46.0353 65.3261 47.2778 63.7935 47.9397C62.2427 48.6094 60.0138 48.7937 57.1386 47.8307L55.2329 53.52C59.219 54.8552 63.007 54.8149 66.1723 53.448C69.3557 52.0732 71.6375 49.4671 72.7221 46.2291L67.0327 44.3235ZM57.1386 47.8307C54.2311 46.8568 51.9265 45.0635 51.3388 43.0087L45.5701 44.6586C46.9759 49.5738 51.6546 52.3215 55.2329 53.52L57.1386 47.8307ZM51.3191 42.9429C51.3007 42.8836 51.2934 42.8417 51.2904 42.8165C51.289 42.8038 51.2885 42.7948 51.2884 42.7892C51.2884 42.7836 51.2886 42.781 51.2886 42.7809C51.2886 42.7808 51.2884 42.7826 51.2878 42.7861C51.2871 42.7895 51.2861 42.7938 51.2846 42.7985C51.2814 42.8088 51.2777 42.8166 51.2755 42.8205C51.257 42.8536 51.3333 42.6855 51.7817 42.521L49.7156 36.8879C48.2162 37.4379 46.8621 38.4231 46.0417 39.8867C45.2011 41.3863 45.0852 43.1017 45.5897 44.7243L51.3191 42.9429ZM51.7816 42.521C52.3449 42.3144 52.4515 42.4247 52.3082 42.3749C52.2791 42.3647 52.2503 42.3509 52.2253 42.3354C52.2135 42.328 52.2042 42.3214 52.1977 42.3162C52.1911 42.3111 52.188 42.3082 52.1882 42.3083C52.1884 42.3085 52.2509 42.3688 52.3417 42.5511L57.7121 39.8756C57.0215 38.4894 55.9101 37.2757 54.2811 36.7085C52.7013 36.1585 51.1001 36.3801 49.7156 36.8879L51.7816 42.521ZM52.3417 42.5511C53.4763 44.8287 55.6096 46.5466 57.61 47.2166L59.5156 41.5273C59.3112 41.4588 58.9543 41.2747 58.5701 40.9434C58.1942 40.6191 57.8944 40.2415 57.7121 39.8756L52.3417 42.5511ZM57.61 47.2166C59.0118 47.6861 60.6504 47.9243 62.2259 47.3784C63.9559 46.7788 65.0541 45.4323 65.5762 43.8736L59.8869 41.968C59.8568 42.0576 59.8546 42.0145 59.9384 41.9233C60.0315 41.8222 60.1531 41.7466 60.2612 41.7091C60.354 41.677 60.3619 41.6985 60.2325 41.6903C60.0996 41.6819 59.8652 41.6444 59.5156 41.5273L57.61 47.2166ZM65.5762 43.8736C65.8158 43.1584 65.9352 42.3363 65.7832 41.4269C65.6379 40.5578 65.277 39.8049 64.8598 39.1571C64.0821 37.9495 62.7839 36.6309 61.1014 35.056L57.0011 39.4363C58.7293 41.0539 59.4942 41.907 59.8154 42.4058C59.9477 42.6111 59.8952 42.5951 59.8653 42.4161C59.8286 42.1966 59.8703 42.0176 59.8869 41.968L65.5762 43.8736ZM61.1092 35.0633C58.5262 32.628 57.2748 30.9688 56.7304 29.6323C56.2641 28.4875 56.2256 27.3578 56.8027 25.6348L51.1133 23.7292C50.1926 26.478 50.0462 29.1277 51.1737 31.8957C52.2231 34.4719 54.2672 36.8589 56.9933 39.429L61.1092 35.0633ZM56.8027 25.6348C57.4261 23.7735 58.5961 22.5927 60.0558 21.9874C61.5597 21.3638 63.6297 21.2522 66.1049 22.0812L68.0105 16.3919C64.4437 15.1972 60.85 15.1627 57.7576 16.445C54.621 17.7456 52.2621 20.2994 51.1133 23.7292L56.8027 25.6348ZM66.1049 22.0812C69.4995 23.2182 71.2201 25.0472 71.8135 27.0214L77.5595 25.2943C76.2495 20.936 72.672 17.9532 68.0105 16.3919L66.1049 22.0812ZM71.8302 27.0754C71.8196 27.0421 71.8006 26.953 71.8164 26.8305C71.8321 26.7089 71.8736 26.6198 71.9024 26.5745C71.9279 26.5342 71.9264 26.5542 71.8504 26.6115C71.774 26.6692 71.6351 26.7545 71.4133 26.8403L73.5781 32.4361C74.9008 31.9244 76.1572 31.0687 76.9695 29.7876C77.8256 28.4375 78.049 26.8163 77.5427 25.2403L71.8302 27.0754ZM71.3941 26.8478C70.9605 27.019 70.7615 26.9612 70.7351 26.9526C70.7148 26.9459 70.689 26.9343 70.6516 26.9019C70.612 26.8676 70.5373 26.79 70.4516 26.6331L65.1865 29.5105C65.9919 30.9842 67.2482 32.1216 68.8596 32.6519C70.4491 33.1749 72.1058 33.0174 73.5973 32.4287L71.3941 26.8478ZM70.4211 26.5787C69.53 25.0258 67.9202 23.3853 66.066 22.7642L64.1604 28.4536C64.1166 28.4389 64.2767 28.4951 64.5589 28.7528C64.8189 28.9902 65.0565 29.2853 65.217 29.5649L70.4211 26.5787ZM64.3433 27.9074C64.6128 27.9976 65.3721 28.5566 65.8115 29.3334L71.0339 26.3793C70.0426 24.6268 68.2325 22.8824 66.2489 22.218L64.3433 27.9074ZM65.8233 29.3541C66.507 30.5406 67.5536 31.6184 69.064 32.1129C70.5528 32.6003 72.0302 32.369 73.2927 31.8696L71.0856 26.2903C70.9886 26.3287 70.914 26.3514 70.8607 26.3646C70.8076 26.3778 70.7786 26.3809 70.7712 26.3815C70.7644 26.3821 70.7784 26.3804 70.8093 26.3837C70.8409 26.3871 70.8829 26.395 70.9308 26.4107C70.9789 26.4264 71.023 26.4468 71.0605 26.4687C71.0976 26.4904 71.1205 26.5091 71.1301 26.5177C71.1477 26.5334 71.103 26.499 71.0221 26.3586L65.8233 29.3541ZM73.253 31.885C75.5329 31.0202 77.8339 28.6014 76.9186 25.4463L71.1562 27.1179C71.1075 26.95 71.098 26.7689 71.1271 26.5989C71.1553 26.4335 71.2131 26.3164 71.2568 26.2493C71.3397 26.1221 71.3557 26.1875 71.1252 26.2749L73.253 31.885ZM76.9037 25.3964C75.6158 21.2286 72.3019 18.4367 67.8276 16.9381L65.922 22.6274C69.0942 23.6899 70.6008 25.3221 71.1711 27.1678L76.9037 25.3964ZM67.8276 16.9381C64.4516 15.8073 61.0436 15.7669 58.1006 16.9986C55.1134 18.2487 52.8881 20.6974 51.796 23.9578L57.4854 25.8635C58.0626 24.14 59.1211 23.0757 60.417 22.5334C61.757 21.9726 63.6314 21.8602 65.922 22.6274L67.8276 16.9381ZM51.796 23.9578C50.9202 26.5727 50.7551 29.1116 51.8507 31.7856C52.8631 34.2568 54.8415 36.5451 57.4744 39.022L61.5856 34.652C59.0799 32.2946 57.9047 30.7361 57.4027 29.5109C56.9839 28.4886 56.9434 27.4814 57.4854 25.8635L51.796 23.9578ZM57.4762 39.0237C59.2853 40.7229 60.1086 41.6531 60.4635 42.2283C60.6112 42.4677 60.5854 42.504 60.5693 42.3939C60.5491 42.2558 60.5811 42.1623 60.5696 42.1967L66.2589 44.1023C66.5161 43.3345 66.6446 42.4713 66.506 41.5247C66.3715 40.6062 66.0126 39.7953 65.5697 39.0776C64.7434 37.7385 63.3559 36.3147 61.5838 34.6503L57.4762 39.0237ZM60.5696 42.1967C60.5308 42.3125 60.5041 42.323 60.5339 42.2917C60.5671 42.257 60.6007 42.2433 60.5952 42.2452C60.5566 42.2587 60.1801 42.3573 59.3327 42.0735L57.4271 47.7628C59.0716 48.3136 60.8864 48.5007 62.5791 47.9077C64.3851 47.275 65.6617 45.8855 66.2589 44.1023L60.5696 42.1967ZM59.3327 42.0735C58.5171 41.8003 57.5084 40.9242 57.1281 40.1313L51.7183 42.7263C52.8135 45.0094 55.1021 46.9841 57.4271 47.7628L59.3327 42.0735ZM57.1084 40.0911C56.5589 38.9881 55.6394 37.7703 54.0611 37.2279C52.5534 36.7098 51.0965 37.0403 49.9953 37.4562L52.1151 43.0693C52.2355 43.0238 52.3255 42.9963 52.3886 42.9802C52.4517 42.964 52.4792 42.9614 52.4763 42.9617C52.4637 42.9629 52.3194 42.9737 52.1111 42.9022C52.0111 42.8678 51.9186 42.8218 51.8383 42.7696C51.7593 42.7182 51.7055 42.6696 51.6749 42.6382C51.6199 42.5818 51.6521 42.5942 51.738 42.7666L57.1084 40.0911ZM50.0037 37.4531C48.6438 37.962 47.4439 38.8781 46.706 40.1883C45.9558 41.5202 45.7991 43.0619 46.2186 44.5323L51.9884 42.8864C51.9845 42.8728 51.9946 42.9018 51.9879 42.9627C51.9811 43.0244 51.9608 43.0848 51.9338 43.1327C51.9078 43.179 51.889 43.19 51.9059 43.1763C51.9239 43.1617 51.9835 43.1185 52.1067 43.0724L50.0037 37.4531ZM46.2275 44.563C47.4391 48.645 51.1033 51.5294 55.4159 52.9739L57.3215 47.2845C54.1241 46.2136 52.4446 44.4226 51.9795 42.8557L46.2275 44.563ZM55.4159 52.9739C58.943 54.1552 62.4724 54.2497 65.5145 53.0434C68.6153 51.8138 70.921 49.3394 72.0394 46.0005L66.35 44.0948C65.7647 45.8422 64.6785 46.9204 63.3028 47.4659C61.8682 48.0348 59.8365 48.1269 57.3215 47.2845L55.4159 52.9739ZM72.0394 46.0005C72.9157 43.3841 73.1213 40.8372 72.0437 38.1454C71.046 35.6531 69.0655 33.3595 66.4134 30.8751L62.3114 35.2539C64.8321 37.6152 65.988 39.1627 66.4734 40.3752C66.879 41.3883 66.9143 42.4101 66.35 44.0948L72.0394 46.0005ZM66.423 30.8841C64.639 29.1981 63.7769 28.2289 63.3871 27.6089C63.2165 27.3376 63.2285 27.2723 63.2437 27.3603C63.2519 27.4074 63.2557 27.4688 63.2499 27.5341C63.2473 27.5645 63.243 27.5896 63.239 27.6083C63.2351 27.6267 63.2318 27.6364 63.2318 27.6363L57.5425 25.7307C56.9246 27.5755 57.3427 29.2679 58.3078 30.8027C59.1503 32.1426 60.5388 33.5787 62.3018 35.2448L66.423 30.8841ZM63.2318 27.6363C63.2455 27.5954 63.2407 27.6307 63.1858 27.6851C63.1315 27.7389 63.089 27.7513 63.1059 27.7457C63.1683 27.7253 63.5556 27.6435 64.3433 27.9074L66.2489 22.218C64.6471 21.6815 62.8829 21.5056 61.2397 22.0433C59.4895 22.6161 58.1481 23.9227 57.5425 25.7307L63.2318 27.6363ZM96.7098 34.066L99.6758 33.6157L99.675 33.6102L96.7098 34.066ZM94.1435 37.4206L94.8592 40.334L94.8783 40.3293L94.8973 40.3243L94.1435 37.4206ZM89.7976 35.4334L87.0458 36.6282L87.0539 36.647L87.0623 36.6656L89.7976 35.4334ZM84.6286 51.546L86.2401 54.0764L86.2472 54.0719L84.6286 51.546ZM89.2036 52.5089L91.5297 50.6143L91.5127 50.5935L91.4954 50.5729L89.2036 52.5089ZM89.0832 57.0624L91.161 59.2264L91.166 59.2215L89.0832 57.0624ZM88.5488 56.6176L86.473 54.4517L86.4654 54.459L88.5488 56.6176ZM88.7022 52.8724L91.0395 50.9918L91.021 50.9688L91.0021 50.9462L88.7022 52.8724ZM85.0604 52.0703L86.6358 54.6234L86.6838 54.5937L86.7308 54.5622L85.0604 52.0703ZM90.4354 35.2294L87.6922 36.4439L87.693 36.4457L90.4354 35.2294ZM93.9281 36.8169L93.2438 33.896L93.2175 33.9021L93.1913 33.9088L93.9281 36.8169ZM96.0153 34.0991L98.991 33.7178L98.9864 33.6824L98.9811 33.6472L96.0153 34.0991ZM79.8681 55.4438C76.7534 54.4006 75.3031 53.1078 74.6715 51.8481C74.0419 50.5921 73.8742 48.6666 74.9151 45.559L69.2258 43.6533C67.9228 47.5436 67.6786 51.2873 69.3079 54.5371C70.9352 57.7831 74.0792 59.8325 77.9625 61.1332L79.8681 55.4438ZM74.9151 45.559L78.6196 34.4989L72.9303 32.5933L69.2258 43.6533L74.9151 45.559ZM78.6196 34.4989C79.6723 31.3561 80.957 29.919 82.1927 29.2994C83.4243 28.6819 85.3228 28.5182 88.4248 29.5572L90.3304 23.8678C86.4687 22.5743 82.7435 22.3114 79.5036 23.9358C76.2677 25.5581 74.233 28.7041 72.9303 32.5933L78.6196 34.4989ZM88.4248 29.5572C92.1334 30.7994 93.539 33.1839 93.7446 34.5217L99.675 33.6102C99.0686 29.6646 95.7703 25.6899 90.3304 23.8678L88.4248 29.5572ZM93.7438 34.5162C93.745 34.524 93.74 34.4933 93.7536 34.4401C93.7671 34.3873 93.7894 34.3495 93.8025 34.3323C93.8294 34.2972 93.7512 34.423 93.3897 34.5168L94.8973 40.3243C97.7965 39.5717 100.197 37.0513 99.6758 33.6157L93.7438 34.5162ZM93.4278 34.5072C93.1596 34.5731 92.9817 34.5812 92.8809 34.5758C92.8313 34.5732 92.7999 34.5674 92.7834 34.5635C92.775 34.5615 92.7695 34.5597 92.7664 34.5587C92.7634 34.5577 92.762 34.557 92.7619 34.5569C92.7617 34.5569 92.7619 34.557 92.7622 34.5571C92.7625 34.5573 92.762 34.557 92.7605 34.556C92.7581 34.5542 92.7478 34.5464 92.7303 34.5276C92.6954 34.49 92.6202 34.3952 92.5329 34.2012L87.0623 36.6656C87.7007 38.0827 88.7444 39.3162 90.2631 40.0119C91.7611 40.6981 93.3693 40.6999 94.8592 40.334L93.4278 34.5072ZM92.5494 34.2387C91.7666 32.4357 90.3728 31.3613 88.6242 30.7756L86.7186 36.4649C87.0009 36.5595 87.0677 36.6263 87.0499 36.6111C87.0417 36.604 87.0308 36.5923 87.0234 36.5821C87.017 36.5733 87.0264 36.5837 87.0458 36.6282L92.5494 34.2387ZM88.6242 30.7756C86.6419 30.1116 84.4542 30.0119 82.5703 31.4206C80.9733 32.6147 80.1839 34.5139 79.6647 36.0638L85.3541 37.9694C85.5755 37.3083 85.7703 36.8567 85.9419 36.552C86.1121 36.2496 86.2008 36.1978 86.1633 36.2258C86.1402 36.2431 86.0994 36.2677 86.0476 36.2868C85.9965 36.3055 85.9669 36.3071 85.9753 36.3065C86.0068 36.3043 86.2256 36.2998 86.7186 36.4649L88.6242 30.7756ZM79.6647 36.0638L76.692 44.9392L82.3813 46.8448L85.3541 37.9694L79.6647 36.0638ZM76.692 44.9392C76.0868 46.746 75.6678 48.8221 76.3837 50.7613C77.1784 52.9139 79.0003 54.0016 80.7611 54.5913L82.6667 48.902C82.2027 48.7466 82.0075 48.6164 81.95 48.5705C81.9245 48.5502 81.9802 48.596 82.0124 48.6833C82.0337 48.741 81.9878 48.6689 82.017 48.3528C82.0471 48.0274 82.1476 47.5425 82.3813 46.8448L76.692 44.9392ZM80.7611 54.5913C81.6298 54.8823 82.5675 55.0636 83.5543 54.9878C84.5767 54.9092 85.4666 54.569 86.2401 54.0764L83.0171 49.0155C82.9822 49.0377 82.9813 49.0337 83.0091 49.0239C83.0395 49.0133 83.0718 49.0072 83.0945 49.0054C83.1363 49.0022 83.0269 49.0226 82.6667 48.902L80.7611 54.5913ZM86.2472 54.0719C86.3191 54.0257 86.3728 53.9991 86.4076 53.9841C86.425 53.9767 86.4377 53.9722 86.4459 53.9695C86.4541 53.9669 86.4581 53.966 86.4582 53.966C86.4583 53.966 86.4551 53.9666 86.4491 53.9673C86.443 53.968 86.4351 53.9686 86.4257 53.9686C86.4056 53.9687 86.3869 53.9665 86.3726 53.9634C86.2976 53.9475 86.5006 53.9579 86.9118 54.4448L91.4954 50.5729C90.5201 49.4185 89.2332 48.4363 87.6161 48.0937C85.9384 47.7383 84.3454 48.1643 83.0099 49.0201L86.2472 54.0719ZM86.8775 54.4034C87.2406 54.8492 87.1604 54.972 87.1645 54.8086C87.1654 54.7765 87.1699 54.7448 87.1769 54.7171C87.1838 54.6899 87.1906 54.6763 87.19 54.6776C87.1882 54.6812 87.1474 54.7614 87.0003 54.9033L91.166 59.2215C92.2866 58.1405 93.1181 56.7 93.1626 54.962C93.206 53.2647 92.4848 51.787 91.5297 50.6143L86.8775 54.4034ZM87.0054 54.8984C86.1174 55.751 84.0468 56.8435 79.8681 55.4438L77.9625 61.1332C83.8198 63.0951 88.3553 61.9203 91.161 59.2264L87.0054 54.8984ZM78.1454 60.587C82.7453 62.1277 87.3817 61.9132 90.6321 58.7763L86.4654 54.459C85.4521 55.4369 83.5073 56.0553 80.051 54.8977L78.1454 60.587ZM90.6245 58.7835C91.6361 57.8141 92.4002 56.5036 92.456 54.9157C92.5106 53.3617 91.8695 52.0233 91.0395 50.9918L86.3649 54.7531C86.4698 54.8836 86.4932 54.9472 86.4893 54.9373C86.4827 54.9204 86.4551 54.8366 86.4597 54.7049C86.4644 54.5698 86.5005 54.4614 86.5316 54.3993C86.5585 54.3455 86.5605 54.3678 86.473 54.4517L90.6245 58.7835ZM91.0021 50.9462C90.2113 50.002 89.1018 49.0163 87.5838 48.677C85.9491 48.3117 84.5017 48.8332 83.39 49.5783L86.7308 54.5622C86.8463 54.4848 86.8487 54.5064 86.7478 54.5317C86.6951 54.5448 86.6222 54.5569 86.534 54.5585C86.4451 54.5602 86.357 54.5509 86.2752 54.5326C86.1081 54.4952 86.0356 54.4366 86.0656 54.4581C86.103 54.485 86.2174 54.5779 86.4023 54.7987L91.0021 50.9462ZM83.485 49.5172C83.4252 49.5541 83.3635 49.5785 83.2558 49.5859C83.1322 49.5944 82.8859 49.5828 82.4838 49.4482L80.5782 55.1375C82.6191 55.8211 84.756 55.7833 86.6358 54.6234L83.485 49.5172ZM82.4838 49.4482C81.9275 49.2618 81.6332 49.0847 81.4899 48.9716C81.3716 48.8783 81.3599 48.8342 81.3563 48.8252C81.3248 48.7468 81.1692 48.1968 81.6986 46.6162L76.0092 44.7105C75.3267 46.7483 74.9564 48.9928 75.7898 51.0645C76.6807 53.2791 78.5927 54.4725 80.5782 55.1375L82.4838 49.4482ZM81.6986 46.6162L84.6713 37.7408L78.982 35.8352L76.0092 44.7105L81.6986 46.6162ZM84.6713 37.7408C85.223 36.0938 85.6689 35.7497 85.7214 35.717C85.7265 35.7138 85.7261 35.7142 85.7293 35.7133C85.7343 35.7118 85.7675 35.7027 85.8425 35.701C86.0064 35.6972 86.3376 35.7299 86.9015 35.9187L88.8071 30.2294C86.8393 29.5703 84.5906 29.3516 82.5474 30.6253C80.6685 31.7965 79.6538 33.8296 78.982 35.8352L84.6713 37.7408ZM86.9015 35.9187C87.5628 36.1402 87.6557 36.3614 87.6922 36.4439L93.1786 34.015C92.3074 32.047 90.6719 30.854 88.8071 30.2294L86.9015 35.9187ZM87.693 36.4457C88.2165 37.626 89.0816 38.8433 90.5528 39.5079C91.9852 40.155 93.4546 40.0316 94.6648 39.725L93.1913 33.9088C93.0685 33.9399 92.9752 33.957 92.9078 33.966C92.8405 33.975 92.8052 33.9752 92.797 33.975C92.7896 33.9749 92.8109 33.9747 92.8541 33.9837C92.8985 33.993 92.9571 34.0102 93.0229 34.04C93.0891 34.0699 93.1485 34.106 93.1981 34.1437C93.2469 34.1807 93.2763 34.2116 93.2887 34.2257C93.3003 34.239 93.2935 34.2337 93.2725 34.1994C93.2514 34.1648 93.2186 34.1052 93.1778 34.0131L87.693 36.4457ZM94.6123 39.7378C97.2922 39.1101 99.3713 36.6852 98.991 33.7178L93.0396 34.4804C93.0141 34.2814 93.0783 34.0989 93.1629 33.987C93.2446 33.879 93.3049 33.8817 93.2438 33.896L94.6123 39.7378ZM98.9811 33.6472C98.3051 29.2106 94.5676 25.8945 90.1475 24.414L88.2419 30.1034C91.3317 31.1383 92.8233 33.0665 93.0495 34.551L98.9811 33.6472ZM90.1475 24.414C86.4899 23.1889 82.9362 22.9087 79.8333 24.4969C76.7485 26.0759 74.8514 29.1247 73.613 32.8219L79.3024 34.7276C80.3164 31.7 81.4937 30.3874 82.5672 29.8379C83.6227 29.2976 85.3112 29.1217 88.2419 30.1034L90.1475 24.414ZM73.613 32.8219L69.9085 43.882L75.5978 45.7876L79.3024 34.7276L73.613 32.8219ZM69.9085 43.882C68.6694 47.5814 68.3739 51.1645 69.9095 54.289C71.4494 57.4223 74.4658 59.3546 78.1454 60.587L80.051 54.8977C77.1082 53.912 75.8316 52.7358 75.2943 51.6426C74.7527 50.5405 74.5959 48.7789 75.5978 45.7876L69.9085 43.882Z" fill="white" mask="url(#path-1-outside-1_2206_2113)"/>
    </svg>
    