<svg width="56" height="66" viewBox="0 0 56 66" fill="none" xmlns="http://www.w3.org/2000/svg">
    <g filter="url(#filter0_d_2206_2110)">
    <path d="M33.6936 35.4455L33.6936 35.4455C33.6703 36.1022 33.6441 36.8696 33.662 37.6491C33.697 39.1778 33.9001 41.1222 34.8993 42.9389C35.8454 44.659 37.3138 46.0546 38.6897 47.111C40.0996 48.1936 41.6223 49.0787 42.9142 49.7247C44.5269 50.531 46.488 49.8773 47.2944 48.2646C48.1008 46.6518 47.4471 44.6907 45.8343 43.8843C44.8118 43.3731 43.6656 42.6992 42.6663 41.9319C41.6324 41.1381 40.9511 40.3928 40.6207 39.7921C40.3761 39.3473 40.2165 38.6577 40.19 37.4997C40.1771 36.9366 40.1954 36.3488 40.2192 35.6772L40.2234 35.5606L40.2238 35.5483C40.2455 34.9419 40.2702 34.2496 40.2592 33.5772C40.1493 26.8777 35.7106 21.3317 31.7993 17.8116C30.4591 16.6053 28.3947 16.714 27.1885 18.0542C25.9823 19.3945 26.0909 21.4588 27.4312 22.665C30.9262 25.8106 33.6659 29.7555 33.7303 33.6842C33.7384 34.1775 33.7197 34.7112 33.6964 35.3677L33.6964 35.3677L33.6936 35.4455Z" fill="#DACDFF" stroke="white" stroke-width="2.1" stroke-linecap="round"/>
    <path d="M33.1293 15.9729C34.2302 14.9202 35.3632 13.9392 36.5643 13.0469C38.5004 11.6087 42.1036 9.43409 45.0966 8.7088C46.6224 8.33907 47.3919 8.49394 47.6736 8.63876C47.7377 8.67172 47.855 8.74099 47.9861 8.96547C48.1299 9.21163 48.3106 9.68173 48.3955 10.5518C48.5298 11.928 48.1605 12.6496 47.6783 13.1632C47.0791 13.8014 46.0117 14.4063 44.3606 14.8773C41.4185 15.7166 37.8104 15.8319 34.7442 15.9248L34.7427 15.9248C34.3217 15.9376 33.9108 15.95 33.517 15.9641C33.3852 15.9688 33.2563 15.9716 33.1293 15.9729ZM15.2695 33.5801C19.1658 31.0475 22.3346 27.7997 25.1895 24.6211C25.7054 30.5855 23.783 35.3602 21.176 41.7735C21.0328 42.1259 20.8875 42.4833 20.7408 42.8454C19.5581 45.7652 18.3587 49.1102 18.3469 52.4249C18.3341 56.019 19.7112 59.3949 23.1485 62.1448C24.5565 63.2712 26.6111 63.043 27.7375 61.6349C28.8639 60.2269 28.6356 58.1724 27.2276 57.046C26.2803 56.2882 25.704 55.5454 25.359 54.8145C25.0142 54.0843 24.8735 53.3095 24.8766 52.4481C24.8834 50.5155 25.6123 48.2113 26.7928 45.2969C26.9685 44.8633 27.1445 44.4317 27.3205 44.0002L27.3527 43.9212C30.0377 37.3386 32.6855 30.8469 31.5146 22.4686C32.1303 22.4938 32.9099 22.5196 33.75 22.4896C34.0966 22.4772 34.4755 22.4663 34.8856 22.4546L34.9355 22.4531C37.8837 22.3685 42.3529 22.2402 46.1519 21.1565C48.3503 20.5293 50.6964 19.4883 52.4387 17.6326C54.2987 15.6515 55.198 13.0307 54.8943 9.91776L53.8493 10.0197L54.8943 9.91776C54.5875 6.77274 53.2666 4.1724 50.6597 2.83185C48.3056 1.62134 45.6528 1.85536 43.5588 2.36277C39.3097 3.39244 34.8731 6.16906 32.6705 7.80526C29.588 10.0951 26.9498 12.8247 24.5319 15.5138C24.4952 15.5101 24.4583 15.507 24.4213 15.5046C23.4303 15.4385 22.421 15.3213 21.2953 15.1903L21.2923 15.19C20.6253 15.1124 19.9202 15.0303 19.1686 14.9537C17.2597 14.7593 15.1181 14.6118 13.0316 14.8147C10.9313 15.0191 8.68909 15.5954 6.71432 17.0061C4.69115 18.4514 3.22619 20.574 2.38361 23.3678C1.23099 27.1896 2.45731 30.9323 5.10966 33.1458C7.82198 35.4093 11.7786 35.8492 15.2695 33.5801ZM18.5069 21.4498C18.7261 21.4722 18.9502 21.4962 19.1782 21.5213C16.816 24.0684 14.4469 26.3269 11.7109 28.1053C10.6417 28.8003 9.82338 28.5748 9.29341 28.1325L8.62065 28.9387L9.29341 28.1325C8.70188 27.6388 8.21901 26.6331 8.63519 25.2532C9.12139 23.641 9.82216 22.8107 10.5099 22.3194C11.2457 21.7937 12.2583 21.4505 13.6638 21.3138C15.0832 21.1757 16.699 21.2657 18.5069 21.4498Z" fill="#DACDFF" stroke="white" stroke-width="2.1" stroke-linecap="round"/>
    </g>
    <defs>
    <filter id="filter0_d_2206_2110" x="0.900269" y="0.900391" width="55.102" height="65.1098" filterUnits="userSpaceOnUse" color-interpolation-filters="sRGB">
    <feFlood flood-opacity="0" result="BackgroundImageFix"/>
    <feColorMatrix in="SourceAlpha" type="matrix" values="0 0 0 0 0 0 0 0 0 0 0 0 0 0 0 0 0 0 127 0" result="hardAlpha"/>
    <feOffset dy="2.1"/>
    <feComposite in2="hardAlpha" operator="out"/>
    <feColorMatrix type="matrix" values="0 0 0 0 0 0 0 0 0 0 0 0 0 0 0 0 0 0 0.25 0"/>
    <feBlend mode="normal" in2="BackgroundImageFix" result="effect1_dropShadow_2206_2110"/>
    <feBlend mode="normal" in="SourceGraphic" in2="effect1_dropShadow_2206_2110" result="shape"/>
    </filter>
    </defs>
    </svg>
    