<svg width="81" height="81" viewBox="0 0 81 81" fill="none" xmlns="http://www.w3.org/2000/svg">
    <path fill-rule="evenodd" clip-rule="evenodd" d="M37.5111 17.0072C37.8069 17.3072 38.1177 17.5317 38.4244 17.6975C39.2274 17.6631 40.0445 17.6456 40.8756 17.6456C63.2945 17.6456 75.4982 30.3417 75.4982 46.0032C75.4982 61.6647 63.2945 71.0634 40.8756 71.0634C18.4566 71.0634 6.25293 61.6647 6.25293 46.0032C6.25293 34.7566 12.5462 25.0391 24.3963 20.4542C22.8298 19.1924 22.079 17.1986 23.3832 15.6215C25.0673 13.5849 26.8381 14.4005 28.3103 15.3485C28.0111 13.0805 28.8948 10.8892 31.2095 10.401C34.908 9.62087 35.8325 12.5543 36.5503 14.8321C36.8459 15.7699 37.1064 16.5966 37.5111 17.0072Z" fill="white"/>
    <path d="M56.2103 54.3042C59.0671 53.0658 59.0671 48.3043 56.2103 47.0659L43.3203 41.1946C42.0628 40.572 39.7622 40.5717 38.433 41.1946L25.5431 47.0659C22.6863 48.3043 22.6863 53.0658 25.5431 54.3042L38.433 60.1754C39.7622 60.6241 42.0628 60.6241 43.3203 60.1754L56.2103 54.3042Z" fill="#FFC147"/>
    <circle cx="15.1564" cy="46.3331" r="5.60557" fill="#FFF4E8"/>
    <circle cx="67.256" cy="46.3331" r="5.60557" fill="#FFF4E8"/>
    <path d="M33.911 37.2058C33.911 39.8468 32.4883 41.9878 29.9985 41.9878C27.5087 41.9878 26.0859 39.8468 26.0859 37.2058C26.0859 34.5648 27.5087 32.4238 29.9985 32.4238C32.4883 32.4238 33.911 34.5648 33.911 37.2058Z" fill="#111111"/>
    <path d="M31.7499 35.4265C31.7499 36.108 31.0132 36.6606 30.1044 36.6606C29.1957 36.6606 28.459 36.108 28.459 35.4265C28.459 34.7449 29.1957 34.1924 30.1044 34.1924C31.0132 34.1924 31.7499 34.7449 31.7499 35.4265Z" fill="white"/>
    <path d="M31.7499 38.7174C31.7499 39.399 31.0132 39.9515 30.1044 39.9515C29.1957 39.9515 28.459 39.399 28.459 38.7174C28.459 38.0358 29.1957 37.4833 30.1044 37.4833C31.0132 37.4833 31.7499 38.0358 31.7499 38.7174Z" fill="white"/>
    <path d="M56.3758 37.2058C56.3758 39.8468 54.9531 41.9878 52.4633 41.9878C49.9735 41.9878 48.5508 39.8468 48.5508 37.2058C48.5508 34.5648 49.9735 32.4238 52.4633 32.4238C54.9531 32.4238 56.3758 34.5648 56.3758 37.2058Z" fill="#111111"/>
    <path d="M54.1317 35.4265C54.1317 36.108 53.395 36.6606 52.4863 36.6606C51.5775 36.6606 50.8408 36.108 50.8408 35.4265C50.8408 34.7449 51.5775 34.1924 52.4863 34.1924C53.395 34.1924 54.1317 34.7449 54.1317 35.4265Z" fill="white"/>
    <path d="M54.1317 38.7174C54.1317 39.399 53.395 39.9515 52.4863 39.9515C51.5775 39.9515 50.8408 39.399 50.8408 38.7174C50.8408 38.0358 51.5775 37.4833 52.4863 37.4833C53.395 37.4833 54.1317 38.0358 54.1317 38.7174Z" fill="white"/>
    <path d="M62.9761 47.5217C64.4338 50.4499 63.2119 53.3507 60.5763 54.6628C57.9408 55.9748 54.8896 55.2012 53.4319 52.273C52.3535 50.1066 53.2628 45.3859 53.809 43.0762C53.9785 42.3591 54.7363 41.9818 55.4108 42.2788C57.5828 43.2353 61.8977 45.3553 62.9761 47.5217Z" fill="#0099FF"/>
    </svg>
    