<svg width="112" height="118" viewBox="0 0 112 118" fill="none" xmlns="http://www.w3.org/2000/svg">
    <path d="M91 84.748C93.5548 88.6302 99.3283 93.1757 102.384 85.1378C102.807 84.0243 107.186 90.3222 107.186 90.3222" stroke="#FFC047" stroke-width="7.74561" stroke-linecap="round"/>
    <path d="M72.5977 96C71.0211 100.372 70.8425 107.718 79.1081 105.346C80.2531 105.018 77.8364 112.298 77.8364 112.298" stroke="#FFC047" stroke-width="7.74561" stroke-linecap="round"/>
    <path d="M55.5223 50.6711C30.1967 58.0024 26.3352 73.6542 28.7354 81.8468C30.3967 88.6064 33.1051 93.6168 37.2682 98.1008C49.0005 110.737 75.47 102.804 81.2257 98.8938C88.7355 93.7916 94.2785 85.7479 93.8579 76.4724C93.596 70.6975 90.2213 66.683 86.6803 63.8936C84.7988 62.4113 83.1936 60.6005 81.793 58.6574C74.5899 48.6643 61.8143 49.3119 55.5223 50.6711Z" fill="#071E4C"/>
    <path d="M58.6556 72.8757C48.8023 76.8322 42.9309 72.5859 42.0644 66.7808L65.166 57.8364C66.5985 63.3341 64.8359 70.3941 58.6556 72.8757Z" fill="#48618F"/>
    <path d="M29.5215 70.6408C37.8404 75.9361 43.9105 69.581 44.688 66.8051L24.921 54.6865C22.878 59.8429 24.3115 67.3245 29.5215 70.6408Z" fill="#48618F"/>
    <path fill-rule="evenodd" clip-rule="evenodd" d="M51.3751 12.4431C50.2813 12.2931 49.2104 12.1712 48.1624 12.0763C47.9195 11.4148 47.7991 10.4898 47.6664 9.47111L47.6664 9.47106C47.2511 6.28285 46.7164 2.17692 41.937 2.35842C38.9859 2.47048 37.4231 5.10416 37.2811 8.13139C35.597 6.90421 33.6438 6.09271 31.6484 8.08226C30.2499 9.47666 30.4974 11.4476 31.6277 13.1469C19.1065 16.4155 12.3327 25.4241 10.7928 36.6582C8.57999 52.8008 18.7889 64.0696 43.8278 67.502C68.8675 70.9344 81.4015 64.0395 83.9237 45.6403C86.1364 29.4977 76.7252 15.918 51.3751 12.4431Z" fill="white"/>
    <path d="M24.6144 39.95C24.2771 43.4559 21.1617 46.0245 17.6558 45.6872C14.15 45.35 11.5814 42.2345 11.9186 38.7287C12.2559 35.2229 15.3713 32.6543 18.8772 32.9915C22.383 33.3288 24.9516 36.4442 24.6144 39.95Z" fill="#FFF4E8"/>
    <path d="M81.0507 48.696C80.6186 53.1876 76.6272 56.4784 72.1357 56.0463C67.6441 55.6142 64.3533 51.6229 64.7854 47.1313C65.2175 42.6398 69.2088 39.349 73.7004 39.781C78.1919 40.2131 81.4828 44.2045 81.0507 48.696Z" fill="#FFF4E8"/>
    <path d="M37.8164 30.5593C37.6276 32.5213 36.4176 34.0102 34.5679 33.8323C32.7182 33.6544 31.8142 31.9621 32.0029 30C32.1917 28.0379 33.4017 26.549 35.2514 26.727C37.1012 26.9049 38.0052 28.5972 37.8164 30.5593Z" fill="#111111"/>
    <path d="M59.5107 34.118C59.3112 36.1925 58.0318 37.7667 56.0761 37.5785C54.1204 37.3904 53.1647 35.6012 53.3642 33.5267C53.5638 31.4522 54.8431 29.878 56.7988 30.0662C58.7545 30.2543 59.7103 32.0435 59.5107 34.118Z" fill="#111111"/>
    <path d="M58.7523 49.8404C61.876 48.9825 62.5721 44.0779 59.8105 42.3847L46.037 34.2135C44.8328 33.3883 42.463 33.0517 41.0029 33.499L28.2221 37.9016C25.0984 38.7596 24.4024 43.6641 27.164 45.3574L38.2282 53.05C39.5317 53.7064 41.9014 54.0427 43.2623 53.7644L58.7523 49.8404Z" fill="#FFC147"/>
    <path d="M44.1271 75.2133C44.0716 76.3252 43.1253 77.1815 42.0134 77.126C40.9015 77.0705 40.0452 76.1241 40.1007 75.0123C40.1562 73.9004 41.1025 73.044 42.2144 73.0995C43.3263 73.155 44.1826 74.1014 44.1271 75.2133Z" fill="#E6ECF2"/>
    <path d="M47.1271 84.2133C47.0716 85.3252 46.1253 86.1815 45.0134 86.126C43.9015 86.0705 43.0452 85.1241 43.1007 84.0123C43.1562 82.9004 44.1025 82.044 45.2144 82.0995C46.3263 82.155 47.1826 83.1014 47.1271 84.2133Z" fill="#E6ECF2"/>
    </svg>
    