<svg width="112" height="118" viewBox="0 0 112 118" fill="none" xmlns="http://www.w3.org/2000/svg">
    <path d="M29.8815 65.8782C30.6321 58.8205 19.9573 53.6339 14.5261 51.9228C5.49245 49.9708 8.35986 57.3647 11.1251 61.3646C7.77327 63.899 2.10594 69.6354 3.34801 75.9307C4.59008 82.2259 13.0993 85.3609 20.5818 84.8015C27.6901 84.27 29.7619 71.6996 29.8815 65.8782Z" fill="#E6ECF2"/>
    <path fill-rule="evenodd" clip-rule="evenodd" d="M29.7644 68.1827C25.3045 69.84 19.8942 69.4019 14.9391 66.5133C13.006 65.3864 11.3033 63.9805 9.86387 62.3845C10.3058 62.0035 10.7307 61.6622 11.1238 61.3649C8.35857 57.3651 5.49231 49.9696 14.526 51.9215C19.9572 53.6326 30.632 58.8192 29.8813 65.8769C29.8671 66.5722 29.8303 67.3504 29.7644 68.1827Z" fill="#75D6FF"/>
    <path fill-rule="evenodd" clip-rule="evenodd" d="M29.3256 72.3654C17.0929 74.4746 9.76861 67.5126 7.62542 64.3659L10.125 61.8652C11.6938 64.1686 18.7993 69.8183 30.1256 67.8653L29.3256 72.3654Z" fill="#BCCAD8"/>
    <path d="M52.1259 67.9373C51.6682 61.0901 63.6128 56.5153 69.6423 55.0838C78.5004 53.8645 75.231 60.6146 72 64.3652C75.5362 66.9496 82.9467 73.8601 81.2638 79.8898C79.5809 85.9195 69.7815 89.0045 61.5937 86.8375C54.0628 84.8443 51.9569 73.5648 52.1259 67.9373Z" fill="#E6ECF2"/>
    <path fill-rule="evenodd" clip-rule="evenodd" d="M52.1122 69.0693C52.1101 68.6719 52.1151 68.2931 52.1258 67.937C51.6681 61.0897 63.6127 56.5149 69.6422 55.0834C78.4997 53.8642 75.2305 60.6139 71.9995 64.3645C72.6711 64.8554 73.4598 65.4603 74.2853 66.1597C72.1247 67.3583 69.6572 68.3529 66.9743 69.0507C61.4797 70.4799 56.1676 70.3819 52.1122 69.0693Z" fill="#75D6FF"/>
    <path fill-rule="evenodd" clip-rule="evenodd" d="M52.5004 73.3661C65.9744 76.0513 73.3223 70.0836 76.0006 67.3656L73.0005 64.8657C71.04 66.8553 64.4759 71.3522 52.0002 68.866L52.5004 73.3661Z" fill="#BCCAD8"/>
    </svg>
    