<svg width="142" height="84" viewBox="0 0 142 84" fill="none" xmlns="http://www.w3.org/2000/svg">
    <path d="M1.024 1.24H42.928V6.232H6.64V8.056H42.928V13.048H24.832V14.632H43.456V19.48H0.544V14.632H19.216V13.048H1.024V1.24ZM1.024 20.968H42.928V33.544H37.312V25.96H1.024V20.968ZM48.544 17.608H91.456V22.696H72.928V33.544H67.312V22.696H48.544V17.608ZM49.024 10.408C51.808 10.408 54.32 10.376 56.56 10.312C58.8 10.248 60.704 9.992 62.272 9.544C63.872 9.064 65.088 8.312 65.92 7.288C66.784 6.232 67.216 4.712 67.216 2.728V1.24H72.832V2.728C72.832 4.712 73.248 6.232 74.08 7.288C74.944 8.312 76.144 9.064 77.68 9.544C79.248 9.992 81.152 10.248 83.392 10.312C85.632 10.376 88.144 10.408 90.928 10.408V15.448C88.08 15.448 85.552 15.4 83.344 15.304C81.136 15.208 79.168 14.968 77.44 14.584C75.744 14.2 74.288 13.64 73.072 12.904C71.856 12.136 70.832 11.096 70 9.784C69.168 11.096 68.128 12.136 66.88 12.904C65.664 13.64 64.208 14.2 62.512 14.584C60.816 14.968 58.848 15.208 56.608 15.304C54.368 15.4 51.84 15.448 49.024 15.448V10.408ZM96.832 1.24H123.184V19.192H102.448V28.552H123.184V33.544H96.832V14.2H117.568V6.232H96.832V1.24ZM133.12 0.759997H138.736V34.024H133.12V0.759997ZM28.72 82.544C26.736 82.544 24.992 82.336 23.488 81.92C21.984 81.504 20.656 80.944 19.504 80.24C18.384 79.536 17.424 78.752 16.624 77.888C15.856 76.992 15.232 76.064 14.752 75.104C14.272 76.064 13.632 76.992 12.832 77.888C12.064 78.752 11.12 79.536 10 80.24C8.88 80.944 7.552 81.504 6.016 81.92C4.512 82.336 2.784 82.544 0.832 82.544V77.456C2.656 77.456 4.256 77.152 5.632 76.544C7.04 75.936 8.208 75.056 9.136 73.904C10.096 72.752 10.8 71.36 11.248 69.728C11.728 68.096 11.968 66.256 11.968 64.208V50.24H17.632V65.696C17.856 69.344 18.896 72.224 20.752 74.336C22.608 76.416 25.264 77.456 28.72 77.456V82.544ZM35.2 49.76H40.816V59.504H46V64.496H40.816V83.024H35.2V49.76ZM48.832 50.24H80.224V55.232H67.408C67.568 56.448 68 57.392 68.704 58.064C69.44 58.736 70.384 59.232 71.536 59.552C72.688 59.872 74 60.08 75.472 60.176C76.944 60.24 78.528 60.272 80.224 60.272V65.072C77.824 65.072 75.76 65.008 74.032 64.88C72.304 64.72 70.816 64.464 69.568 64.112C68.32 63.728 67.296 63.232 66.496 62.624C65.696 61.984 65.04 61.2 64.528 60.272C63.984 61.2 63.28 61.984 62.416 62.624C61.584 63.232 60.544 63.728 59.296 64.112C58.048 64.464 56.56 64.72 54.832 64.88C53.104 65.008 51.104 65.072 48.832 65.072V60.272C50.56 60.272 52.16 60.24 53.632 60.176C55.136 60.08 56.448 59.872 57.568 59.552C58.72 59.232 59.632 58.736 60.304 58.064C61.008 57.392 61.44 56.448 61.6 55.232H48.832V50.24ZM48.832 66.608H54.448V77.552H90.736V82.544H48.832V66.608ZM85.12 49.76H90.736V65.072H85.12V49.76ZM96.832 50.24H126.592L123.76 59.744H126.976V64.592H96.544V59.744H106.528V56.576H112.144V59.744H117.76L119.056 55.232H96.832V50.24ZM96.832 66.704H102.448V77.552H138.736V82.544H96.832V66.704ZM131.68 49.76H137.296V55.232H142V60.224H137.296V64.592H131.68V49.76Z" fill="#002875"/>
    </svg>
    