<svg width="113" height="104" viewBox="0 0 113 104" fill="none" xmlns="http://www.w3.org/2000/svg">
    <path d="M72.5 38H89.2785L109.755 87.7922C110.506 89.6185 109.163 91.6227 107.188 91.6227H91.3179C90.1045 91.6227 89.0318 90.8343 88.6694 89.6763L72.5 38Z" fill="#002875"/>
    <path d="M72.5 38H82.6698L104.722 91.6227H91.3179C90.1045 91.6227 89.0318 90.8343 88.6694 89.6763L72.5 38Z" fill="#001641"/>
    <path d="M11.0807 9.85047C11.4635 6.51667 14.2857 4 17.6414 4H84.3198C88.0366 4 91.0212 7.0661 90.9212 10.7815L88.6379 95.574C88.5416 99.1506 85.6144 102 82.0365 102H7.90542C3.95982 102 0.894666 98.5628 1.34475 94.6429L11.0807 9.85047Z" fill="url(#paint0_linear_2259_22294)"/>
    <path d="M19.8543 17.1073C19.9826 15.9613 20.9516 15.0947 22.1047 15.0947H77.6643C78.946 15.0947 79.9722 16.1575 79.9274 17.4384L77.431 88.7209C77.3884 89.9399 76.3878 90.9061 75.168 90.9061H14.1264C12.776 90.9061 11.7258 89.7317 11.876 88.3897L19.8543 17.1073Z" fill="url(#paint1_linear_2259_22294)"/>
    <g clip-path="url(#clip0_2259_22294)">
    <path d="M22.7506 99.9346C19.404 87.7945 26.873 73.4535 31.4895 67.5798C32.0621 66.8514 33.0062 66.554 33.9123 66.7472L38.9924 67.8303L44.8048 68.5058L52.0563 67.7173L54.7367 66.3476C56.5017 65.4458 58.6737 66.0115 59.6788 67.7198C67.5272 81.059 69.7462 94.9887 67.9643 99.5172L22.7506 99.9346Z" fill="#FFF4E8"/>
    <path d="M12.518 93.9282C17.1716 78.8784 24.7931 70.5033 32.4469 68.0971L25.8145 97.6131L12.518 93.9282Z" fill="#E6ECF2"/>
    <path d="M77.2358 90.5698C71.8195 75.7774 61.9547 66.9568 56.4941 66.5656L64.9765 95.641L77.2358 90.5698Z" fill="#E6ECF2"/>
    <path d="M22.7505 99.9328C19.5012 88.1459 25.8532 74.29 30.3725 68.1187C31.1107 67.1107 32.495 66.9138 33.5602 67.5668L37.5595 70.0184L44.104 71.4134L52.075 69.8928L53.5203 69.1545L55.2087 67.6817C56.9834 66.1337 59.7248 66.5046 60.8778 68.5581C68.2215 81.6366 69.7084 95.0825 67.9642 99.5155L22.7505 99.9328Z" fill="url(#paint2_linear_2259_22294)"/>
    <path d="M55.3824 73.4266C48.899 75.0835 44.8483 73.5832 44.1035 71.4113L59.3134 67.6517C60.4284 69.6983 59.4489 72.3874 55.3824 73.4266Z" fill="#48618F"/>
    <path d="M34.7864 73.1055C40.5052 74.9595 44.388 72.4631 44.8297 71.4044L31.2541 67.1738C30.0329 69.1506 31.2048 71.9444 34.7864 73.1055Z" fill="#48618F"/>
    <path d="M45.7192 78.5543C45.7919 79.3622 45.1958 80.0761 44.3878 80.1488C43.5799 80.2215 42.866 79.6254 42.7933 78.8174C42.7206 78.0095 43.3167 77.2956 44.1246 77.2229C44.9326 77.1502 45.6465 77.7463 45.7192 78.5543Z" fill="#E6ECF2"/>
    <path d="M45.5219 85.8345C45.5946 86.6425 44.9985 87.3564 44.1905 87.4291C43.3826 87.5018 42.6687 86.9057 42.596 86.0977C42.5233 85.2898 43.1194 84.5758 43.9274 84.5032C44.7353 84.4305 45.4492 85.0266 45.5219 85.8345Z" fill="#E6ECF2"/>
    <path d="M34.4419 83.6364C34.7373 83.4046 34.8999 83.0625 34.9298 82.6103C34.9453 82.3762 34.9526 82.2023 34.9516 82.0887L34.4419 83.6364ZM34.4419 83.6364C34.1555 83.8608 33.8222 83.9604 33.4419 83.9353M34.4419 83.6364L33.4419 83.9353M33.4419 83.9353C33.0363 83.9084 32.6897 83.7598 32.4021 83.4894L33.4419 83.9353ZM37.3796 81.3065L37.3813 81.3048C38.0028 80.6634 38.3317 79.7909 38.4019 78.7282C38.4639 77.7907 38.34 76.9892 37.9931 76.3531C37.6277 75.6829 37.032 75.3177 36.2555 75.2664C35.7154 75.2307 35.2342 75.3614 34.8454 75.6857C34.4482 76.0091 34.2463 76.4688 34.2102 77.0156C34.2014 77.1482 34.2035 77.4671 34.2136 77.9477L34.2134 77.9477L34.214 77.9581C34.2289 78.2575 34.2318 78.4212 34.2282 78.4766C34.2082 78.7792 34.1388 78.9468 34.0681 79.0332L34.0679 79.0331L34.0608 79.0424C34.0268 79.0869 33.9589 79.1411 33.7597 79.1279C33.5671 79.1152 33.4942 79.0549 33.4568 78.9973C33.4027 78.8994 33.3612 78.7213 33.3811 78.4206C33.3842 78.3737 33.4082 78.2169 33.4626 77.9206L33.4628 77.9206L33.4642 77.9114C33.5366 77.4508 33.5806 77.1357 33.5905 76.9868C33.6268 76.4373 33.495 75.9518 33.153 75.5775C32.8163 75.2003 32.3528 75.0083 31.8067 74.9722C31.0252 74.9206 30.386 75.2167 29.9367 75.849C29.5088 76.451 29.2796 77.2695 29.2136 78.2667C29.149 79.2451 29.3536 80.0935 29.8583 80.7817L29.8582 80.7817L29.8601 80.7842C30.3094 81.386 30.9187 81.8293 31.6725 82.1202C31.6657 82.2017 31.659 82.293 31.6523 82.3937C31.6172 82.9249 31.778 83.3899 32.1492 83.75L32.1492 83.7501L32.1534 83.7539C32.5043 84.0838 32.9311 84.2654 33.418 84.2976C33.8828 84.3283 34.3054 84.2046 34.6658 83.9223L34.6661 83.922C35.0592 83.6135 35.257 83.1662 35.2921 82.6343C35.2979 82.5472 35.3026 82.467 35.3062 82.394C36.1371 82.2208 36.8342 81.862 37.3796 81.3065Z" fill="#E6ECF2" stroke="#48618F" stroke-width="0.726184"/>
    <path fill-rule="evenodd" clip-rule="evenodd" d="M45.1182 31.407C45.1712 31.4689 45.2248 31.5279 45.2789 31.5842C45.73 31.5753 46.1878 31.5727 46.6525 31.5765C64.1552 31.7204 71.7263 40.112 71.6347 51.2575C71.5302 63.9611 63.6283 69.7336 46.3399 69.5914C29.052 69.4492 21.1416 62.6951 21.2332 51.5496C21.295 44.0354 24.8718 37.5094 32.5595 34.0986C31.344 32.9015 30.8083 31.3016 31.7969 30.0247C33.2605 28.1344 35.0279 28.9216 36.5214 29.8378C36.0859 27.3383 36.9462 24.84 39.34 24.439C42.8701 23.8477 43.6592 26.8441 44.272 29.1708L44.272 29.1708C44.5243 30.1288 44.7467 30.9733 45.1182 31.407Z" fill="white"/>
    <path d="M31.3334 52.5574C31.4146 55.0857 29.4308 57.2011 26.9024 57.2823C24.3741 57.3635 22.2587 55.3797 22.1775 52.8514C22.0963 50.323 24.0801 48.2076 26.6084 48.1264C29.1367 48.0452 31.2522 50.029 31.3334 52.5574Z" fill="#FFF4E8"/>
    <path d="M69.9592 54.1974C70.0459 56.8962 67.9284 59.1542 65.2297 59.2409C62.5309 59.3275 60.2729 57.21 60.1862 54.5113C60.0996 51.8125 62.2171 49.5545 64.9158 49.4679C67.6146 49.3812 69.8726 51.4987 69.9592 54.1974Z" fill="#FFF4E8"/>
    <path d="M39.6749 46.4894C39.7207 47.9143 38.9902 49.094 37.6469 49.1372C36.3035 49.1803 35.4988 48.0498 35.4531 46.6249C35.4073 45.2 36.1378 44.0203 37.4812 43.9771C38.8245 43.934 39.6292 45.0645 39.6749 46.4894Z" fill="#111111"/>
    <path d="M56.0871 46.9816C56.1329 48.4065 55.4024 49.5862 54.059 49.6293C52.7157 49.6725 51.911 48.542 51.8653 47.1171C51.8195 45.6922 52.55 44.5125 53.8933 44.4693C55.2367 44.4262 56.0414 45.5566 56.0871 46.9816Z" fill="#111111"/>
    <path d="M56.0795 57.8275C58.1239 56.9727 58.1679 53.5843 56.1463 52.6767L46.7256 48.6033C45.8365 48.1485 44.1993 48.1271 43.2477 48.5581L34.3231 52.3935C32.2787 53.2484 32.2347 56.6367 34.2563 57.5444L43.0724 62.0652C44.0141 62.3967 45.6513 62.4179 46.5503 62.1103L56.0795 57.8275Z" fill="#FFC147"/>
    <path opacity="0.4" fill-rule="evenodd" clip-rule="evenodd" d="M53.8934 15.0977H43.5786L17.323 39.8115L16.1062 50.6659L53.8934 15.0977ZM18.4256 29.9752L34.3918 15.0977H22.1182C20.9652 15.0977 19.9963 15.964 19.8678 17.1098L18.4256 29.9752Z" fill="white"/>
    </g>
    <defs>
    <linearGradient id="paint0_linear_2259_22294" x1="45.8019" y1="4" x2="45.8019" y2="102" gradientUnits="userSpaceOnUse">
    <stop stop-color="#496BAC"/>
    <stop offset="1" stop-color="#002875"/>
    </linearGradient>
    <linearGradient id="paint1_linear_2259_22294" x1="45.8019" y1="15.0947" x2="45.8019" y2="90.9061" gradientUnits="userSpaceOnUse">
    <stop stop-color="#C5DCFF"/>
    <stop offset="1" stop-color="#92B5EB"/>
    </linearGradient>
    <linearGradient id="paint2_linear_2259_22294" x1="42.6874" y1="65.4537" x2="45.9296" y2="101.498" gradientUnits="userSpaceOnUse">
    <stop stop-color="#132F63"/>
    <stop offset="1" stop-color="#001641"/>
    </linearGradient>
    <clipPath id="clip0_2259_22294">
    <rect x="11.5942" y="7.69824" width="66.566" height="83.2076" rx="3.30189" fill="white"/>
    </clipPath>
    </defs>
    </svg>
    