<svg width="66" height="64" viewBox="0 0 66 64" fill="none" xmlns="http://www.w3.org/2000/svg">
    <path d="M21.7099 2.49116C20.3147 4.17011 19.5607 6.77912 18.7672 8.75193C15.6863 16.4119 13.2405 24.3237 10.5539 32.1264C8.36004 38.4979 6.21558 44.8665 4.70177 51.4408C4.27506 53.294 3.75297 55.2982 3.68342 57.2187C3.60802 59.3009 34.5004 59.8848 37.9889 60.0301C41.8673 60.1917 45.8283 60.1669 49.6709 60.7681C50.639 60.9196 51.463 58.1512 51.6055 57.7601C57.6559 41.156 55.035 23.1092 56.5088 5.89762C56.6301 4.47999 54.9065 5.03886 53.7394 5.02971C46.8518 4.97575 39.9669 4.90763 33.0999 4.31061C30.7083 4.10268 28.1956 3.76249 25.858 3.25246" stroke="#0C0C0C" stroke-width="2" stroke-linecap="round"/>
    <path d="M56.6628 31.0175C57.3014 37.0198 59.8153 42.0189 62.243 47.4416C62.6129 48.2679 64.7064 51.4943 64.1094 52.6185C63.6261 53.5286 61.1204 56.0343 59.9429 55.7494C58.1886 55.3248 55.9712 51.377 54.953 50.1066C54.3483 49.3521 52.9648 48.0907 52.8938 46.9729" stroke="#0C0C0C" stroke-width="2" stroke-linecap="round"/>
    <path d="M31.5896 22.1748C30.9223 21.3253 28.993 21.9923 28.2061 22.2477C24.9316 23.3104 23.0728 25.7625 21.9357 28.9012C21.1814 30.983 20.6191 33.4944 21.487 35.6349C22.3038 37.6494 25.3345 37.7859 27.1505 38.0707C29.4928 38.4381 31.8466 38.6189 34.2154 38.6997C36.232 38.7685 38.6813 39.0072 40.6481 38.3264C43.4609 37.3528 44.3807 33.683 44.5712 31.0876C44.7575 28.5497 44.3035 25.5162 42.0121 24.0002C38.6419 21.7704 34.1581 21.3061 30.2343 20.9815" stroke="#0C0C0C" stroke-width="2" stroke-linecap="round"/>
    <path d="M30.6654 27.778C30.1089 28.102 30.0708 29.1864 29.9374 29.7435" stroke="#0C0C0C" stroke-width="2" stroke-linecap="round"/>
    <path d="M35.1663 28.1309C35.1864 28.4471 35.3169 28.6815 35.4326 28.9669" stroke="#0C0C0C" stroke-width="2" stroke-linecap="round"/>
    <path d="M35.9147 33.2015C35.6971 31.8795 31.813 32.6414 30.9531 32.6757C29.7531 32.7237 28.0201 32.5947 27.4802 33.9508C26.9697 35.2331 31.6565 35.2117 32.0635 35.2351C33.3636 35.3098 35.2821 35.9449 36.0092 34.6881" stroke="#0C0C0C" stroke-width="2" stroke-linecap="round"/>
    <path d="M43.3453 42.7513C42.9779 42.7289 43.0863 42.0904 43.098 41.843C43.1437 40.8758 43.4697 40.0022 44.0326 39.2129C44.3508 38.7667 45.5286 37.1526 46.2475 37.3425C47.8816 37.7743 46.0219 41.7177 48.2093 40.9969C49.7497 40.4893 52.9371 39.8872 51.751 42.6673C51.3257 43.664 50.5629 44.4839 49.6259 45.0176C48.8098 45.4825 47.0412 45.5391 46.4753 46.3315C46.1009 46.8556 46.2671 48.0156 45.9946 48.6484C45.5291 49.7298 44.7373 50.4689 43.5513 50.6517C41.0371 51.0394 37.7822 49.188 38.051 46.3101C38.1939 44.7806 39.8639 44.4072 41.0901 44.1741" stroke="#0C0C0C" stroke-width="2" stroke-linecap="round"/>
    <path d="M24.8377 40.0901C23.1566 42.1202 21.9893 44.2857 21.3581 46.8505C21.2888 47.1319 20.9577 47.9015 21.0761 48.0057" stroke="#0C0C0C" stroke-width="2" stroke-linecap="round"/>
    <path d="M17.0447 51.6733C25.4017 52.5055 33.7731 53.163 42.1376 53.9404C44.109 54.1236 46.0757 54.3604 48.0498 54.5123C48.5995 54.5546 50.0659 54.6945 50.7224 54.4372C51.7128 54.0491 51.2867 51.2702 51.3267 50.525C51.7068 43.4443 51.7137 36.3633 51.8478 29.2747C51.9328 24.7794 51.9404 20.2934 51.6551 15.8056C51.583 14.6709 51.5694 13.5142 51.4377 12.3839C51.4094 12.1413 51.2502 12.0341 51.0095 11.9846C47.1179 11.1845 43.0081 11.0763 39.0653 10.6351C36.1609 10.3101 33.1139 9.49701 30.1792 9.68353C29.1094 9.75153 28.0396 9.81952 26.9699 9.88751C26.6077 9.91053 26.2183 9.89511 25.8608 9.958C25.45 10.0303 25.2175 10.422 25.0106 10.7465C23.8469 12.5716 23.1062 14.6583 22.2453 16.6323C20.5268 20.5731 18.7666 24.3576 17.8271 28.5701C17.1674 31.5284 16.4197 34.4479 15.4454 37.3221C14.2155 40.9504 12.7262 44.4382 11.7982 48.1566C11.679 48.6343 11.3048 48.8684 11.8443 49.2554C12.8107 49.9486 14.1572 50.3516 15.2781 50.7193" stroke="#0C0C0C" stroke-width="2" stroke-linecap="round"/>
    </svg>
    