<svg width="64" height="64" viewBox="0 0 64 64" fill="none" xmlns="http://www.w3.org/2000/svg">
    <g clip-path="url(#clip0_2259_13050)">
    <g filter="url(#filter0_d_2259_13050)">
    <path fill-rule="evenodd" clip-rule="evenodd" d="M29.6103 13.1261C29.8471 13.3663 30.0959 13.546 30.3415 13.6786C30.9837 13.6511 31.6372 13.6372 32.3019 13.6372C50.2371 13.6372 60 23.7941 60 36.3232C60 48.8524 50.2371 56.3714 32.3019 56.3714C14.3667 56.3714 4.60376 48.8524 4.60376 36.3232C4.60376 27.3259 9.63835 19.5519 19.1185 15.884C17.8653 14.8746 17.2647 13.2796 18.308 12.0179C19.6553 10.3887 21.0719 11.0411 22.2497 11.7995C22.0102 9.98495 22.7171 8.23167 24.5689 7.84109C27.5278 7.21701 28.2674 9.56375 28.8416 11.386C29.0781 12.1362 29.2865 12.7976 29.6103 13.1261Z" fill="white"/>
    <path d="M25.0241 30.7835C25.0241 32.3861 24.1608 33.6853 22.65 33.6853C21.1392 33.6853 20.2759 32.3861 20.2759 30.7835C20.2759 29.181 21.1392 27.8818 22.65 27.8818C24.1608 27.8818 25.0241 29.181 25.0241 30.7835Z" fill="#111111"/>
    <path d="M44.5448 30.7835C44.5448 32.3861 43.6814 33.6853 42.1706 33.6853C40.6598 33.6853 39.7965 32.3861 39.7965 30.7835C39.7965 29.181 40.6598 27.8818 42.1706 27.8818C43.6814 27.8818 44.5448 29.181 44.5448 30.7835Z" fill="#111111"/>
    <path d="M44.5688 42.9638C46.8543 41.9731 46.8543 38.1639 44.5688 37.1732L34.2569 32.4762C33.2509 31.9781 31.4103 31.9779 30.347 32.4762L20.0351 37.1732C17.7496 38.1639 17.7496 41.9731 20.0351 42.9639L30.347 47.6608C31.4103 48.0198 33.2509 48.0198 34.2569 47.6608L44.5688 42.9638Z" fill="#FFC147"/>
    <circle cx="11.7262" cy="36.587" r="4.48446" fill="#FFF4E8"/>
    <circle cx="53.4052" cy="36.587" r="4.48446" fill="#FFF4E8"/>
    </g>
    </g>
    <defs>
    <filter id="filter0_d_2259_13050" x="-3.39624" y="-0.261719" width="71.3962" height="64.6328" filterUnits="userSpaceOnUse" color-interpolation-filters="sRGB">
    <feFlood flood-opacity="0" result="BackgroundImageFix"/>
    <feColorMatrix in="SourceAlpha" type="matrix" values="0 0 0 0 0 0 0 0 0 0 0 0 0 0 0 0 0 0 127 0" result="hardAlpha"/>
    <feOffset/>
    <feGaussianBlur stdDeviation="4"/>
    <feComposite in2="hardAlpha" operator="out"/>
    <feColorMatrix type="matrix" values="0 0 0 0 0.567917 0 0 0 0 0.799192 0 0 0 0 0.966667 0 0 0 0.5 0"/>
    <feBlend mode="normal" in2="BackgroundImageFix" result="effect1_dropShadow_2259_13050"/>
    <feBlend mode="normal" in="SourceGraphic" in2="effect1_dropShadow_2259_13050" result="shape"/>
    </filter>
    <clipPath id="clip0_2259_13050">
    <rect width="64" height="64" fill="white"/>
    </clipPath>
    </defs>
    </svg>
    