<svg width="67" height="64" viewBox="0 0 67 64" fill="none" xmlns="http://www.w3.org/2000/svg">
    <path d="M49.2752 48.2857C61.157 43.5191 64.656 33.1445 57.3323 22.7962C52.1725 15.5054 40.8198 11.6954 32.2429 11.3098C23.1859 10.9025 15.6441 15.4065 10.3117 22.4985C5.93915 28.3139 5.7234 48.7273 16.5558 44.7131" stroke="black" stroke-width="3" stroke-linecap="round"/>
    <path d="M35.6145 29.1976C38.075 28.2473 49.6943 32.8964 48.8234 35.2192C47.8338 37.8583 35.6554 39.3902 33.1409 39.8354C27.7631 40.7876 23.8149 37.9444 19.5751 34.7268C16.9415 32.7282 27.4594 27.8639 28.9291 28.9307" stroke="black" stroke-width="3" stroke-linecap="round"/>
    <path d="M39.3 22.0641C41.2999 22.1304 40.0654 23.1694 39.5511 22.4849C39.226 22.0522 38.6769 19.7331 39.9132 20.1239C40.7796 20.3978 40.2239 21.7669 39.542 21.9058C38.5704 22.1037 38.7978 20.5463 39.5027 20.2075C41.3218 19.3333 42.4142 22.9882 40.8058 23.7137C39.4084 24.3441 37.251 20.3587 39.3169 19.8501C41.1047 19.4099 41.598 22.5562 40.2453 23.2591C39.3212 23.7394 38.275 21.3201 39.3 22.0641Z" stroke="black" stroke-width="3" stroke-linecap="round"/>
    <path d="M22.3894 22.096C25.8644 24.0961 22.3573 24.7012 22.2675 23.3593C22.1153 21.0858 24.6348 21.5811 24.4497 23.8143C24.2102 26.7051 21.4338 23.7221 22.5884 22.4791C23.6491 21.3372 25.1239 25.226 23.3447 23.9345" stroke="black" stroke-width="3" stroke-linecap="round"/>
    </svg>
    