<svg width="53" height="52" viewBox="0 0 53 52" fill="none" xmlns="http://www.w3.org/2000/svg">
    <path fill-rule="evenodd" clip-rule="evenodd" d="M12.2617 15.5791C10.5142 15.5791 9.09766 16.9957 9.09766 18.7431V33.7723C9.09766 40.7621 14.764 46.4284 21.7538 46.4284H31.2459C38.2356 46.4284 43.902 40.7621 43.902 33.7723V18.7431C43.902 16.9957 42.4854 15.5791 40.738 15.5791H12.2617ZM31.246 27.4443C31.246 29.5108 29.9253 31.2688 28.0819 31.9203V36.9362C28.0819 37.8099 27.3736 38.5182 26.4999 38.5182C25.6262 38.5182 24.9179 37.8099 24.9179 36.9362V31.9202C23.0745 31.2687 21.7539 29.5107 21.7539 27.4443C21.7539 24.8231 23.8788 22.6982 26.5 22.6982C29.1211 22.6982 31.246 24.8231 31.246 27.4443Z" fill="white"/>
    <path fill-rule="evenodd" clip-rule="evenodd" d="M33.4032 16.3718C33.4032 16.3715 33.4032 16.3713 33.4032 16.371C33.4032 12.5584 30.3125 9.46762 26.4999 9.46762C22.6873 9.46762 19.5965 12.5584 19.5965 16.371C19.5965 16.3713 19.5965 16.3715 19.5965 16.3718H13.8438C13.8438 16.3715 13.8438 16.3713 13.8438 16.371C13.8438 9.38118 19.5101 3.71484 26.4999 3.71484C33.4896 3.71484 39.156 9.38118 39.156 16.371C39.156 16.3713 39.156 16.3715 39.156 16.3718H33.4032Z" fill="white"/>
    </svg>
    